<?xml version="1.0" encoding="UTF-8"?>
<svg version="1.1" xmlns="http://www.w3.org/2000/svg" width="158" height="158">
<path d="M0 0 C1.64968872 1.28793335 1.64968872 1.28793335 3 3 C3.86994969 11.37539797 1.64777681 19.41687788 -0.17578125 27.54296875 C-0.50549378 29.04017757 -0.83460007 30.53752002 -1.16313171 32.0349884 C-1.85066768 35.15873581 -2.54481561 38.28091622 -3.24389648 41.40209961 C-4.13676435 45.39054854 -5.01394185 49.38225301 -5.88633442 53.37522411 C-6.56246309 56.46241937 -7.24636151 59.54785307 -7.93263817 62.63280678 C-8.25901362 64.10382467 -8.58312588 65.57534668 -8.90487099 67.04738426 C-9.35628342 69.10657803 -9.8180101 71.16319795 -10.2824707 73.21948242 C-10.54228226 74.3870256 -10.80209381 75.55456879 -11.06977844 76.75749207 C-12.31471242 81.09700481 -13.78330283 84.78330283 -17 88 C-20.15871085 88.69337555 -22.1783146 88.49138414 -24.97265625 86.8203125 C-30.68967135 82.48326656 -35.90001748 77.51368594 -41.15234375 72.6328125 C-44.06200401 69.94267393 -47.02436877 67.32812395 -50.01953125 64.734375 C-52.31133155 62.72735462 -54.55996752 60.67597149 -56.8125 58.625 C-60.33010818 55.44240212 -63.92747051 52.40882038 -67.625 49.4375 C-80.38341704 38.98394635 -80.38341704 38.98394635 -81.6640625 34.86328125 C-81.8125 32.75 -81.8125 32.75 -81 29 C-77.35637121 25.40581681 -73.34904333 23.77341779 -68.578125 22.1875 C-67.85277054 21.93683273 -67.12741608 21.68616547 -66.38008118 21.42790222 C-64.00643142 20.60941261 -61.62836307 19.80467936 -59.25 19 C-55.90864917 17.85462478 -52.56955793 16.70273048 -49.23046875 15.55078125 C-48.38230087 15.2592366 -47.534133 14.96769196 -46.66026306 14.66731262 C-40.88811385 12.67616677 -35.14910014 10.60765698 -29.42578125 8.48046875 C-28.67140778 8.20099396 -27.9170343 7.92151917 -27.13980103 7.63357544 C-24.23919703 6.55789479 -21.33909348 5.48137039 -18.44567871 4.38647461 C-16.4681108 3.63857308 -14.48652232 2.90236165 -12.50390625 2.16796875 C-10.83050171 1.53797974 -10.83050171 1.53797974 -9.12329102 0.89526367 C-5.84768631 -0.04365937 -3.38455412 -0.39309675 0 0 Z M-11 14 C-11.92949463 14.35553955 -12.85898926 14.7110791 -13.81665039 15.07739258 C-21.37754604 17.95073017 -28.96631282 20.71068405 -36.62109375 23.32421875 C-37.42608307 23.60049103 -38.23107239 23.87676331 -39.06045532 24.16140747 C-42.3699315 25.29714181 -45.67947288 26.4321714 -48.99536133 27.54907227 C-51.45774408 28.38009988 -53.91467686 29.22574652 -56.37109375 30.07421875 C-57.50205727 30.44929817 -57.50205727 30.44929817 -58.65586853 30.83195496 C-60.47073217 31.46586612 -62.24161345 32.22305076 -64 33 C-64.33 33.99 -64.66 34.98 -65 36 C-61.2947559 39.26797927 -57.57506217 42.51753056 -53.80859375 45.71484375 C-47.22185197 51.31161114 -40.74145074 56.98669018 -34.4387207 62.90307617 C-28.89055892 68.90225658 -28.89055892 68.90225658 -22 72 C-20.41010667 64.73477996 -18.82753736 57.46800591 -17.25437069 50.19914436 C-16.5237007 46.8241824 -15.79049287 43.44981333 -15.05151367 40.07666016 C-14.2025983 36.20116277 -13.36466868 32.32333135 -12.52734375 28.4453125 C-12.25969711 27.23070343 -11.99205048 26.01609436 -11.71629333 24.76467896 C-11.47596878 23.64366791 -11.23564423 22.52265686 -10.98803711 21.36767578 C-10.77263779 20.37728302 -10.55723846 19.38689026 -10.33531189 18.3664856 C-9.76956751 15.98730616 -9.76956751 15.98730616 -11 14 Z " fill="#EEEEEE" transform="translate(108,40)"/>
</svg>
