<svg xmlns="http://www.w3.org/2000/svg" width="1920" height="485" viewBox="0 0 1920 485" version="1.1"><path d="M 522.549 0.921 C 522.235 1.428, 518.383 3.040, 513.989 4.504 C 502.762 8.243, 499.842 12.942, 508.720 12.985 C 511.166 12.996, 512.487 12.260, 514.215 9.923 C 516.289 7.118, 516.850 6.900, 520.571 7.458 C 525.636 8.218, 527.897 7.401, 529.039 4.398 C 529.923 2.072, 529.946 2.070, 544.746 2.552 C 556.859 2.948, 559.928 2.764, 561.534 1.550 C 563.295 0.219, 561.392 0.060, 543.309 0.032 C 532.038 0.014, 522.866 0.407, 522.549 0.921 M 566.611 2.750 C 566.967 4.263, 569.299 7.408, 571.791 9.740 C 574.532 12.304, 577.149 16.032, 578.412 19.174 C 580.022 23.180, 581.129 24.536, 583.250 25.098 C 585.825 25.781, 586 25.626, 585.994 22.664 C 585.985 17.928, 582.451 11.568, 576.041 4.750 C 572.771 1.272, 570.823 0, 568.769 0 C 566.216 0, 566.021 0.249, 566.611 2.750 M 493.500 11.930 C 490.152 12.740, 486 15.100, 486 16.194 C 486 17.701, 493.072 18.871, 496.005 17.848 C 498.922 16.832, 500.677 13.904, 499.506 12.009 C 498.811 10.885, 497.872 10.873, 493.500 11.930 M 475.500 18 C 473.342 19.100, 471.024 20, 470.348 20 C 467.469 20, 468.201 22.057, 471.582 23.470 C 477.265 25.844, 480.864 25.488, 482.025 22.435 C 484.517 15.880, 482.434 14.465, 475.500 18 M 460.988 23.349 C 459.070 24.645, 455.037 26.333, 452.027 27.099 C 449.016 27.866, 445.105 29.475, 443.335 30.676 C 441.566 31.877, 437.954 33.169, 435.309 33.548 C 429.716 34.348, 423.368 37.768, 424.806 39.206 C 425.329 39.729, 427.560 40.400, 429.763 40.695 C 433.862 41.245, 435.939 40.032, 438.500 35.590 C 439.300 34.202, 440.009 34.050, 442.051 34.827 C 446.335 36.459, 450.044 35.138, 451.594 31.428 C 452.897 28.311, 453.150 28.183, 456.229 29.066 C 463.650 31.194, 467.615 29.213, 466.813 23.777 C 466.368 20.759, 464.972 20.657, 460.988 23.349 M 760.304 37.747 C 766.247 37.924, 775.697 37.923, 781.304 37.745 C 786.912 37.567, 782.050 37.422, 770.500 37.423 C 758.950 37.424, 754.362 37.570, 760.304 37.747 M 918.302 37.746 C 923.693 37.926, 932.243 37.925, 937.302 37.744 C 942.361 37.563, 937.950 37.416, 927.500 37.417 C 917.050 37.418, 912.911 37.566, 918.302 37.746 M 1198.302 37.746 C 1203.693 37.926, 1212.243 37.925, 1217.302 37.744 C 1222.361 37.563, 1217.950 37.416, 1207.500 37.417 C 1197.050 37.418, 1192.911 37.566, 1198.302 37.746 M 1419.302 37.746 C 1424.693 37.926, 1433.243 37.925, 1438.302 37.744 C 1443.361 37.563, 1438.950 37.416, 1428.500 37.417 C 1418.050 37.418, 1413.911 37.566, 1419.302 37.746 M 1577.750 37.749 C 1589.988 37.908, 1610.013 37.908, 1622.250 37.749 C 1634.487 37.590, 1624.475 37.460, 1600 37.460 C 1575.525 37.460, 1565.513 37.590, 1577.750 37.749 M 1784.250 37.750 C 1802.813 37.902, 1833.188 37.902, 1851.750 37.750 C 1870.313 37.597, 1855.125 37.472, 1818 37.472 C 1780.875 37.472, 1765.688 37.597, 1784.250 37.750 M 415.686 39.017 C 414.138 39.481, 412.332 40.309, 411.673 40.857 C 411.013 41.404, 408.271 42.407, 405.579 43.084 C 400.198 44.439, 392 48.655, 392 50.066 C 392 50.559, 393.238 51.233, 394.750 51.564 C 396.262 51.896, 398.066 52.342, 398.759 52.555 C 399.451 52.769, 401.138 52.518, 402.509 51.997 C 404.513 51.235, 405 50.361, 405 47.525 C 405 45.150, 405.462 44, 406.417 44 C 407.196 44, 408.006 44.518, 408.217 45.151 C 408.428 45.784, 411.104 46.510, 414.163 46.764 C 419.693 47.222, 419.733 47.206, 420.863 43.963 C 422.984 37.880, 422.145 37.078, 415.686 39.017 M 578.831 48.650 C 576.814 53.208, 576.809 53.415, 578.560 59.197 C 580.434 65.388, 582 67.578, 582 64.009 C 582 62.850, 582.681 60.584, 583.513 58.975 C 584.345 57.367, 585.309 53.339, 585.655 50.025 L 586.285 44 583.586 44 C 581.336 44, 580.545 44.773, 578.831 48.650 M 385.749 50.413 C 383.137 51.116, 380.176 52.436, 379.171 53.346 C 378.165 54.256, 376.590 55, 375.671 55 C 373.224 55, 373.632 56.668, 376.250 57.370 C 382.899 59.152, 389 57.379, 389 53.665 C 389 52.419, 389.540 50.860, 390.200 50.200 C 391.607 48.793, 391.808 48.783, 385.749 50.413 M 364.899 57.914 C 362.935 58.967, 359.298 60.133, 356.817 60.505 C 354.335 60.877, 351.002 62.221, 349.408 63.492 C 346.542 65.777, 346.532 65.825, 348.410 67.901 C 351.154 70.933, 353.795 70.497, 357.686 66.371 C 360.838 63.030, 361.441 62.789, 365.326 63.321 C 370.046 63.968, 371.169 63.509, 372.897 60.229 C 375.254 55.754, 371.148 54.565, 364.899 57.914 M 340.994 65.993 C 337.510 66.971, 331.640 70.061, 330.807 71.356 C 329.713 73.057, 331.979 75, 335.057 75 C 340.309 75, 342.698 73.424, 343.440 69.470 C 343.819 67.449, 343.987 65.682, 343.814 65.543 C 343.642 65.404, 342.372 65.607, 340.994 65.993 M 575.500 70.195 C 572.533 71.878, 572.032 73.026, 572.015 78.194 C 572.004 81.775, 572.585 83.554, 574.468 85.694 C 576.700 88.231, 576.940 88.306, 576.968 86.473 C 576.986 85.357, 577.709 83.433, 578.575 82.196 C 579.441 80.960, 580.404 77.485, 580.715 74.474 C 581.221 69.567, 581.084 69.003, 579.390 69.030 C 578.350 69.047, 576.600 69.571, 575.500 70.195 M 323.550 73.222 C 321.378 73.678, 318.891 74.694, 318.024 75.478 C 317.157 76.263, 314.435 77.225, 311.974 77.617 C 309.513 78.009, 305.597 79.340, 303.271 80.575 L 299.041 82.820 303.087 84.928 C 307.470 87.213, 308.274 87.017, 311.827 82.794 C 313.848 80.392, 314.911 80, 319.398 80 C 325.635 80, 328.304 78.386, 327.836 74.897 C 327.519 72.535, 327.274 72.439, 323.550 73.222 M 500.743 75.590 C 500.334 75.999, 500 78.058, 500 80.167 C 500 84.307, 501.184 84.932, 504.408 82.493 C 506.075 81.231, 506.453 81.237, 507.408 82.539 C 508.351 83.825, 509.013 83.680, 512.250 81.478 C 517.419 77.963, 517.195 76, 511.625 76 C 509.219 76, 505.953 75.741, 504.368 75.424 C 502.783 75.107, 501.152 75.182, 500.743 75.590 M 487.315 81.032 C 484.977 81.947, 483 84.881, 483 87.434 C 483 89.754, 487.162 89.389, 492.388 86.611 C 496.125 84.623, 496.682 83.970, 495.691 82.730 C 494.133 80.781, 490.063 79.955, 487.315 81.032 M 289.250 85.115 C 285.497 87.519, 285.119 89.458, 288.093 91.050 C 292.360 93.333, 297 89.887, 297 84.435 C 297 82.345, 293.031 82.693, 289.250 85.115 M 470.455 88.455 C 465.135 93.774, 468.803 95.737, 476.695 91.795 L 481.109 89.591 478.805 87.818 C 475.644 85.386, 473.348 85.561, 470.455 88.455 M 507.022 88.596 C 507.010 89.749, 506.307 92.081, 505.461 93.778 C 504.615 95.474, 503.652 99.144, 503.322 101.931 C 502.735 106.883, 502.782 107, 505.335 107 C 510.618 107, 512.536 98.604, 509.022 90.859 C 507.710 87.967, 507.037 87.206, 507.022 88.596 M 275.500 89.686 C 273.850 90.569, 271.511 92.060, 270.303 92.998 C 267.378 95.270, 269.091 97, 274.266 97 C 279.990 97, 282 95.561, 282 91.465 C 282 87.483, 280.422 87.051, 275.500 89.686 M 454.817 92.714 C 453.341 93.632, 451.906 95.252, 451.628 96.314 C 451.181 98.023, 450.511 98.173, 445.811 97.615 C 439.394 96.853, 438.388 97.413, 437.480 102.252 C 436.582 107.040, 437.421 107.061, 447.294 102.500 C 451.460 100.575, 455.461 98.992, 456.184 98.982 C 456.908 98.972, 459.406 97.672, 461.735 96.093 L 465.970 93.223 463.235 92.753 C 461.731 92.494, 459.825 92.004, 459 91.664 C 458.175 91.324, 456.292 91.796, 454.817 92.714 M 256.500 97.478 C 253.750 98.831, 250.368 99.952, 248.985 99.969 C 247.602 99.986, 244.900 100.842, 242.980 101.871 C 241.060 102.900, 237.474 104.082, 235.012 104.498 C 232.549 104.914, 228.085 106.508, 225.092 108.041 L 219.651 110.827 223.530 112.448 C 228.926 114.703, 232.571 113.707, 234.604 109.423 C 236.452 105.527, 236.743 105.448, 241.654 107.500 C 246.479 109.516, 246.526 109.503, 249 105.500 C 251.097 102.107, 251.353 102, 257.382 102 C 264.077 102, 266 100.952, 266 97.300 C 266 94.224, 263 94.280, 256.500 97.478 M 566.970 99.113 C 565.368 105.060, 567.778 117.622, 570.078 115.322 C 571.613 113.787, 575.955 100.857, 575.979 97.750 C 575.998 95.209, 575.699 95, 572.039 95 C 568.245 95, 568.030 95.174, 566.970 99.113 M 422.180 104.283 C 421.595 104.988, 420.644 106.806, 420.067 108.323 C 419.180 110.657, 418.721 110.921, 417.075 110.040 C 412.313 107.491, 403 109.866, 403 113.629 C 403 114.883, 402.047 115.025, 397.461 114.452 C 390.865 113.628, 387.962 115.349, 388.774 119.601 C 389.186 121.751, 389.654 122.053, 391.760 121.524 C 393.133 121.179, 395.879 119.795, 397.861 118.449 C 400.162 116.885, 402.874 116, 405.364 116 C 407.509 116, 410.667 115.140, 412.382 114.088 C 414.097 113.036, 417.738 111.845, 420.474 111.441 C 423.209 111.037, 427.317 109.712, 429.602 108.497 L 433.757 106.288 430.974 104.644 C 427.645 102.677, 423.649 102.513, 422.180 104.283 M 503.125 110.882 C 503.056 112.192, 502.149 114.667, 501.109 116.382 C 499.484 119.062, 497 127.966, 497 131.113 C 497 131.670, 498.452 131.986, 500.227 131.813 C 504.491 131.399, 506.292 128.053, 505.509 122 C 504.504 114.225, 503.255 108.402, 503.125 110.882 M 213.007 111.593 C 211.086 112.426, 208.477 114.082, 207.209 115.274 C 205.074 117.279, 205.037 117.493, 206.701 118.150 C 208.984 119.050, 214.354 119.185, 216.418 118.393 C 217.486 117.983, 218 116.520, 218 113.893 C 218 109.532, 217.883 109.479, 213.007 111.593 M 196.500 118.092 C 194.850 118.593, 192.432 119.834, 191.127 120.849 L 188.754 122.694 192.752 123.709 C 198.233 125.100, 203 123.164, 203 119.548 C 203 116.769, 201.765 116.492, 196.500 118.092 M 375.500 119.771 C 372.873 120.376, 372.034 121.807, 372.015 125.719 C 371.998 129.323, 371.809 129.324, 380.733 125.653 C 385.712 123.604, 387.462 121.384, 384.750 120.555 C 382.044 119.728, 377.400 119.335, 375.500 119.771 M 562.557 122.223 C 560.705 124.866, 560.597 131.345, 562.337 135.422 L 563.584 138.344 565.677 135.684 C 567.943 132.802, 569.511 125.186, 568.496 121.987 C 567.655 119.338, 564.489 119.463, 562.557 122.223 M 177.500 124.522 C 174.750 125.875, 171.479 126.986, 170.232 126.991 C 167.622 127.001, 158 131.783, 158 133.070 C 158 134.453, 161.622 136, 164.863 136 C 168.268 136, 170.716 133.978, 171.607 130.430 C 172.301 127.665, 173.644 127.416, 176.441 129.532 C 177.509 130.339, 179.196 131, 180.191 131 C 182.797 131, 186 127.416, 186 124.500 C 186 121.297, 184.047 121.302, 177.500 124.522 M 357.174 127.314 C 355.978 128.587, 355 130.114, 355 130.707 C 355 132.451, 352.169 133.034, 349.533 131.833 C 345.971 130.210, 341 132.417, 341 135.621 C 341 137.524, 341.527 138, 343.632 138 C 345.080 138, 347.667 137.153, 349.382 136.118 C 351.097 135.083, 354.750 133.918, 357.500 133.530 C 360.250 133.142, 363.986 131.913, 365.802 130.798 C 368.953 128.865, 369.026 128.686, 367.397 126.886 C 364.989 124.225, 359.875 124.440, 357.174 127.314 M 150.500 134.419 C 148.849 135.120, 146.900 136.415, 146.168 137.298 C 145.436 138.180, 142.812 139.205, 140.339 139.576 C 137.865 139.947, 135.605 140.865, 135.317 141.616 C 135.029 142.367, 132.996 143.520, 130.799 144.178 C 127.920 145.041, 125.574 146.885, 122.402 150.779 C 117.329 157.008, 116.887 159, 120.579 159 C 123.447 159, 131.253 151.930, 132.410 148.284 C 132.823 146.984, 134.254 145.884, 136.044 145.490 C 137.668 145.134, 139.586 144.001, 140.306 142.974 C 141.307 141.544, 143.128 141.034, 148.057 140.803 C 154.326 140.508, 154.509 140.423, 154.828 137.628 C 155.269 133.767, 154.091 132.893, 150.500 134.419 M 326.750 137.031 C 325.736 137.650, 325 139.310, 325 140.980 C 325 143.753, 324.879 143.826, 321.757 142.930 C 317.846 141.809, 311.299 141.707, 310.650 142.758 C 310.392 143.174, 309.861 145.221, 309.470 147.307 C 308.761 151.086, 308.769 151.096, 311.629 150.391 C 313.208 150.002, 315.400 149.131, 316.500 148.456 C 317.600 147.781, 321.485 146.257, 325.134 145.071 C 328.782 143.885, 332.565 142.034, 333.539 140.957 C 334.513 139.881, 336.005 139, 336.855 139 C 337.830 139, 338.050 138.650, 337.450 138.051 C 335.946 136.549, 328.676 135.856, 326.750 137.031 M 493.518 145.750 C 492.502 148.912, 491.359 153.461, 490.978 155.858 L 490.284 160.216 493.889 159.631 C 498.704 158.849, 500 156.752, 500 149.743 C 500 138.892, 496.428 136.691, 493.518 145.750 M 556.989 148.250 C 554.538 152.271, 554.509 157.421, 556.913 161.935 L 558.743 165.370 560.733 160.871 C 561.828 158.396, 563.043 153.813, 563.434 150.686 C 564.137 145.054, 564.119 145, 561.557 145 C 559.712 145, 558.403 145.932, 556.989 148.250 M 294.455 149.455 C 293.105 150.805, 292 152.657, 292 153.571 C 292 154.842, 291.470 155.063, 289.750 154.512 C 284.311 152.770, 280.902 152.778, 278.955 154.540 C 277.880 155.514, 277 157.140, 277 158.155 C 277 160.654, 282.200 160.639, 286.382 158.127 C 288.097 157.097, 291.407 155.968, 293.738 155.617 C 297.462 155.058, 306 151.442, 306 150.425 C 306 149.704, 300.082 147, 298.504 147 C 297.627 147, 295.805 148.105, 294.455 149.455 M 264 159.288 C 262.119 160.235, 261.423 161.473, 261.189 164.289 L 260.877 168.033 265.189 166.364 C 267.560 165.447, 270.400 163.921, 271.500 162.975 C 272.600 162.029, 274.175 161.036, 275 160.768 C 275.870 160.486, 274.821 159.805, 272.500 159.147 C 267.518 157.733, 267.075 157.740, 264 159.288 M 115.163 162.598 C 112.668 164.346, 112.297 167.793, 114.513 168.643 C 116.615 169.450, 119 167.214, 119 164.437 C 119 161.344, 117.785 160.762, 115.163 162.598 M 489.592 166.147 C 489.218 168.487, 488.431 170.981, 487.842 171.691 C 487.253 172.400, 486.536 175.910, 486.249 179.490 C 485.676 186.621, 486.248 187.211, 491.436 184.847 C 495.794 182.861, 496.073 174.849, 492.094 165.960 L 490.273 161.893 489.592 166.147 M 248.215 164.846 C 246.473 165.951, 245.346 173, 246.911 173 C 249.204 173, 257.960 168.479, 257.980 167.285 C 258.023 164.687, 251.166 162.974, 248.215 164.846 M 232.783 171.750 C 231.944 172.713, 230.733 174.512, 230.093 175.750 C 229.050 177.767, 229.167 178, 231.215 177.996 C 233.678 177.992, 240 174.551, 240 173.215 C 240 171.837, 237.689 170, 235.955 170 C 235.050 170, 233.623 170.787, 232.783 171.750 M 551.950 172.839 C 550.146 174.300, 549.693 175.646, 549.749 179.378 C 549.819 183.956, 552.059 189, 554.023 189 C 554.560 189, 555 188.303, 555 187.450 C 555 186.598, 555.683 184.581, 556.517 182.968 C 557.351 181.354, 558.312 178.002, 558.653 175.517 C 559.246 171.190, 559.166 171, 556.747 171 C 555.358 171, 553.199 171.828, 551.950 172.839 M 216.223 176.557 C 215 177.413, 214 179.020, 214 180.129 C 214 181.983, 213.569 182.090, 208.621 181.472 C 201.631 180.599, 199 181.929, 199 186.335 C 199 190.337, 200.526 192, 204.200 192 C 206.298 192, 207 191.517, 207 190.073 C 207 187.815, 213.922 181.756, 215.716 182.444 C 217.232 183.026, 223 181.099, 223 180.011 C 223 179.574, 224.238 178.889, 225.750 178.488 L 228.500 177.759 225 176.456 C 220.298 174.705, 218.843 174.721, 216.223 176.557 M 485.116 190.785 C 485.052 192.592, 484.273 195.180, 483.385 196.535 C 482.496 197.891, 481.535 201.925, 481.248 205.500 C 480.754 211.648, 480.843 212, 482.878 212 C 485.619 212, 488.991 206.638, 488.996 202.270 C 488.998 200.494, 488.352 197.344, 487.560 195.270 C 486.768 193.197, 485.920 190.600, 485.676 189.500 C 485.407 188.288, 485.186 188.795, 485.116 190.785 M 112.972 195.316 C 113.340 197.743, 114.622 200.976, 115.821 202.499 C 117.019 204.023, 118 205.814, 118 206.480 C 118 207.145, 118.844 208.454, 119.876 209.388 C 121.595 210.943, 121.805 210.949, 122.376 209.461 C 123.377 206.853, 123.106 204.963, 121.500 203.357 C 120.675 202.532, 120 200.735, 120 199.363 C 120 195.887, 118.260 193, 116.165 193 C 115.194 193, 113.928 192.528, 113.351 191.951 C 112.619 191.219, 112.505 192.236, 112.972 195.316 M 549.773 197.727 C 546.417 198.079, 545.943 198.497, 545.022 201.919 C 544.332 204.481, 544.325 207.439, 544.999 210.996 C 545.550 213.898, 546 216.437, 546 216.636 C 546 216.836, 546.411 217, 546.913 217 C 547.912 217, 552.462 205.440, 553.505 200.250 C 553.865 198.463, 554.011 197.076, 553.829 197.168 C 553.648 197.261, 551.823 197.512, 549.773 197.727 M 217 203.688 C 217 206.888, 232.299 225, 235.002 225 C 235.467 225, 237.227 226.162, 238.914 227.581 C 241.295 229.584, 242.634 230.020, 244.892 229.524 L 247.802 228.885 239.651 220.672 C 231.783 212.744, 223.275 206, 221.143 206 C 220.577 206, 219.413 205, 218.557 203.777 L 217 201.555 217 203.688 M 478.303 221.766 C 475.838 227.080, 473.538 236.443, 474.368 237.786 C 475.234 239.188, 480.971 237.928, 481.896 236.132 C 483.588 232.846, 484.012 227.153, 482.936 222.139 C 482.330 219.313, 481.534 217.007, 481.167 217.016 C 480.800 217.024, 479.512 219.162, 478.303 221.766 M 136 223.526 C 136 225.808, 146.662 236.584, 153.500 241.214 C 156.800 243.448, 161.075 246.830, 163 248.728 C 167.113 252.784, 168.254 251.225, 165.080 245.887 C 162.544 241.623, 150.561 230.011, 145.213 226.634 C 142.988 225.230, 140.879 223.613, 140.525 223.041 C 139.530 221.431, 136 221.810, 136 223.526 M 540.597 224.166 C 538.707 226.864, 538.564 230.811, 540.163 236.149 L 541.325 240.029 543.562 236.265 C 544.827 234.135, 545.950 230.329, 546.149 227.500 C 546.464 223.012, 546.279 222.469, 544.347 222.193 C 542.997 222.001, 541.597 222.737, 540.597 224.166 M 261 242.992 C 261 245.569, 261.349 246.042, 269.125 254 C 275.377 260.398, 284.376 268.290, 288.571 271.056 C 294.071 274.682, 299.315 272.876, 294.260 269.097 C 292.742 267.962, 291.108 266.630, 290.630 266.137 C 280.364 255.552, 277.045 252.400, 274.067 250.408 C 266.782 245.534, 265.449 244.576, 263.250 242.636 L 261 240.651 261 242.992 M 471.278 249.694 C 470.057 252.887, 468.758 257.706, 468.392 260.403 L 467.727 265.306 471.527 264.689 C 473.617 264.350, 475.752 263.648, 476.271 263.129 C 476.791 262.609, 477.447 259.306, 477.729 255.789 C 478.186 250.092, 477.983 249.092, 475.871 246.641 L 473.500 243.888 471.278 249.694 M 535.073 250.635 C 532.618 253.755, 532.416 257.970, 534.526 262.050 C 535.365 263.672, 536.232 265, 536.452 265 C 537.628 265, 540.377 257.814, 540.948 253.250 C 541.569 248.290, 541.482 248, 539.375 248 C 538.149 248, 536.212 249.186, 535.073 250.635 M 1224.750 254.749 C 1238.638 254.906, 1261.363 254.906, 1275.250 254.749 C 1289.138 254.592, 1277.775 254.464, 1250 254.464 C 1222.225 254.464, 1210.862 254.592, 1224.750 254.749 M 1475.685 254.748 C 1485.138 254.912, 1500.888 254.913, 1510.685 254.749 C 1520.483 254.585, 1512.750 254.451, 1493.500 254.450 C 1474.250 254.450, 1466.233 254.584, 1475.685 254.748 M 180.393 263.582 C 180.727 264.452, 181 265.352, 181 265.582 C 181 265.812, 181.675 266, 182.500 266 C 183.325 266, 184 266.467, 184 267.037 C 184 268.671, 192.157 276.182, 201.991 283.603 C 206.946 287.342, 211 290.745, 211 291.166 C 211 291.586, 211.943 292.434, 213.095 293.051 C 215.004 294.073, 215.124 293.965, 214.449 291.840 C 214.042 290.557, 213.186 289.056, 212.547 288.504 C 211.907 287.952, 209.835 285.320, 207.942 282.655 C 204.761 278.178, 203.019 276.209, 198.964 272.504 C 195.909 269.713, 189.893 266.011, 187.393 265.384 C 185.988 265.031, 184.602 264.126, 184.312 263.371 C 184.023 262.617, 182.886 262, 181.786 262 C 180.373 262, 179.964 262.464, 180.393 263.582 M 466.240 275.750 C 465.037 279.462, 463.858 284.413, 463.621 286.750 C 463.233 290.576, 463.406 290.997, 465.345 290.968 C 470.382 290.894, 473.491 285.758, 472.500 279.149 C 471.914 275.245, 469.569 269, 468.688 269 C 468.545 269, 467.443 272.038, 466.240 275.750 M 530.750 273.572 C 527.970 275.080, 527.549 276.584, 527.971 283.500 C 528.071 285.150, 528.974 287.342, 529.976 288.372 C 531.750 290.193, 531.853 290.120, 533.836 285.639 C 534.956 283.106, 536.177 279.002, 536.550 276.517 C 537.148 272.527, 537.010 272.005, 535.364 272.040 C 534.339 272.062, 532.263 272.751, 530.750 273.572 M 307 282.772 C 307 283.880, 307.675 285.045, 308.500 285.362 C 309.325 285.678, 310 286.624, 310 287.463 C 310 289.585, 329.096 309, 331.182 309 C 332.117 309, 333.177 309.478, 333.538 310.062 C 334.625 311.820, 339.023 313.086, 340.728 312.132 C 342.047 311.394, 341.736 310.715, 338.778 307.877 C 333.110 302.438, 321.994 292.681, 319.656 291.091 C 318.470 290.285, 315.137 287.630, 312.250 285.191 C 307.788 281.423, 307 281.059, 307 282.772 M 461.386 301.770 C 460.148 304.541, 459.007 309.784, 458.634 314.429 C 458.282 318.790, 457.394 323.290, 456.660 324.429 C 454.912 327.139, 452 335.820, 452 338.318 C 452 339.397, 452.788 340.877, 453.750 341.608 C 459.079 345.653, 461.570 340.747, 460.614 328.087 C 459.963 319.458, 460.003 319.228, 462.435 317.635 C 466.331 315.082, 467.516 309.049, 465.427 302.407 C 464.491 299.433, 463.675 297.009, 463.613 297.020 C 463.551 297.032, 462.549 299.169, 461.386 301.770 M 527.772 299.727 C 524.415 300.079, 523.927 300.510, 522.863 304.063 C 521.929 307.180, 521.968 309.530, 523.049 315.254 C 524.238 321.553, 524.506 322.108, 525.098 319.500 C 525.473 317.850, 526.745 314.577, 527.925 312.227 C 529.469 309.149, 532.731 297.624, 531.621 299.168 C 531.554 299.261, 529.823 299.512, 527.772 299.727 M 229 306.761 C 229 308.231, 248.222 325.162, 262.115 335.929 L 265.248 338.358 264.493 335.929 C 264.078 334.593, 263.093 333.124, 262.305 332.665 C 261.517 332.205, 260.564 330.999, 260.186 329.985 C 259.395 327.858, 246.193 314, 244.959 314 C 244.506 314, 243.852 313.109, 243.506 312.020 C 242.479 308.784, 229 303.898, 229 306.761 M 519.220 324.250 C 516.529 327.534, 516.068 333.383, 517.980 340 C 519.218 344.286, 519.882 345.562, 519.929 343.746 C 519.968 342.232, 520.900 339.314, 522 337.261 C 523.274 334.884, 524 331.619, 524 328.265 C 524 323.781, 523.721 323, 522.122 323 C 521.090 323, 519.784 323.563, 519.220 324.250 M 356.456 325.861 C 356.865 327.151, 358.291 329.814, 359.624 331.778 C 362.842 336.519, 373.577 348, 374.794 348 C 375.322 348, 376.351 348.718, 377.078 349.595 C 378.560 351.379, 387.655 356, 389.687 356 C 390.409 356, 391 355.640, 391 355.200 C 391 353.849, 377.729 340.911, 374.777 339.385 C 373.250 338.595, 372 337.607, 372 337.190 C 372 336.773, 370.762 335.680, 369.250 334.762 C 367.738 333.845, 364.897 331.610, 362.937 329.797 C 360.978 327.984, 358.550 325.829, 357.543 325.008 C 355.845 323.624, 355.766 323.686, 356.456 325.861 M 279 350 C 277.625 350.440, 276.980 350.845, 277.567 350.900 C 278.154 350.955, 283.195 355.485, 288.769 360.967 C 294.344 366.448, 300.389 371.583, 302.202 372.377 C 304.016 373.171, 307.188 375.413, 309.250 377.359 C 311.634 379.609, 313 380.359, 313 379.418 C 313 378.603, 312.325 377.678, 311.500 377.362 C 310.675 377.045, 310 376.003, 310 375.046 C 310 374.090, 308.538 371.775, 306.750 369.903 C 304.962 368.032, 302.368 365.150, 300.985 363.500 C 299.602 361.850, 296.902 359.309, 294.985 357.854 C 293.068 356.398, 289.956 353.811, 288.070 352.104 C 284.540 348.910, 283.301 348.623, 279 350 M 449.024 354.655 C 447.765 357.694, 446.514 362.130, 446.246 364.512 L 445.757 368.844 449.501 368 C 454.601 366.850, 455.214 365.994, 455.367 359.812 C 455.468 355.756, 454.993 353.814, 453.407 351.794 L 451.314 349.130 449.024 354.655 M 514.085 351.582 C 510.467 354.627, 510.009 358.854, 512.689 364.475 L 514.379 368.018 516.649 362.759 C 518.977 357.368, 519.716 350.561, 518.085 349.552 C 517.581 349.241, 515.781 350.155, 514.085 351.582 M 407.022 370.382 C 406.963 375.406, 419.582 389.750, 427.437 393.588 C 430.153 394.915, 432.740 396, 433.187 396 C 434.548 396, 434.094 393.323, 432.511 392.009 C 431.692 391.329, 431.253 390.400, 431.535 389.943 C 432.051 389.108, 424.288 382.455, 415.326 376.052 C 412.672 374.156, 409.723 371.681, 408.772 370.552 C 407.139 368.613, 407.043 368.603, 407.022 370.382 M 445 375.413 C 445 376.324, 444.373 378.067, 443.606 379.285 C 442.839 380.503, 441.907 384.087, 441.534 387.250 C 440.875 392.840, 440.923 393, 443.254 393 C 447.262 393, 450.002 389.107, 449.985 383.436 C 449.969 378.272, 449.621 377.379, 446.750 375.128 C 445.235 373.940, 445 373.978, 445 375.413 M 508.344 374.996 C 504.362 376.602, 504.008 387.864, 507.875 389.933 C 509.375 390.736, 509.963 390.214, 511.522 386.695 C 512.544 384.388, 513.673 380.587, 514.032 378.250 C 514.624 374.385, 514.493 374.006, 512.591 374.063 C 511.441 374.098, 509.530 374.518, 508.344 374.996 M 325.335 392.286 C 326.895 393.504, 329.595 396.046, 331.335 397.935 C 337.782 404.933, 342.653 409.269, 348.499 413.214 C 351.800 415.441, 356.188 419.041, 358.250 421.215 C 365.326 428.673, 361.768 420.053, 354.469 412.055 C 342.080 398.478, 335.297 393, 330.876 393 C 329.429 393, 327.685 392.325, 327 391.500 C 326.315 390.675, 325.023 390.016, 324.128 390.036 C 322.970 390.062, 323.319 390.711, 325.335 392.286 M 501.572 399.571 C 499.607 401.536, 499.399 412.796, 501.281 415.370 C 502.447 416.964, 502.751 416.778, 504.647 413.311 C 506.559 409.815, 509.487 400.077, 508.795 399.519 C 507.173 398.213, 502.900 398.243, 501.572 399.571 M 495.449 428.468 C 494.652 430.375, 494.012 432.738, 494.026 433.718 C 494.063 436.217, 497.819 443.932, 497.919 441.715 C 497.964 440.733, 498.689 438.877, 499.532 437.591 C 500.375 436.305, 501.337 432.946, 501.671 430.126 C 502.269 425.078, 502.238 425, 499.588 425 C 497.464 425, 496.593 425.729, 495.449 428.468 M 374 434.581 C 374 436.683, 401.493 461, 403.869 461 C 404.452 461, 405.471 462.011, 406.132 463.247 C 406.846 464.580, 407.500 464.999, 407.741 464.277 C 408.903 460.791, 390.779 439.931, 383.290 436.134 C 379.374 434.149, 374 433.251, 374 434.581 M 491.189 452.039 C 488.635 454.418, 488.335 458.203, 490.555 460.045 C 492.728 461.849, 495.869 458.581, 496.663 453.690 C 497.181 450.498, 497 450, 495.319 450 C 494.251 450, 492.392 450.918, 491.189 452.039 M 486.196 464.713 C 484.929 464.955, 483.516 466.131, 483.057 467.327 C 482.598 468.522, 479.235 472.362, 475.584 475.859 C 469.673 481.521, 468.592 482.166, 465.723 481.738 C 463.950 481.474, 461.438 481.657, 460.139 482.146 C 458.736 482.674, 454.599 482.636, 449.940 482.052 C 442.161 481.076, 436 481.981, 436 484.098 C 436 485.543, 471.407 485.225, 474.680 483.750 C 479.894 481.401, 492 468.509, 492 465.306 C 492 464.009, 490.617 463.868, 486.196 464.713 M 422.500 478.556 C 425.404 481.020, 431.039 484, 432.795 484 C 433.923 484, 433.051 478.150, 431.808 477.382 C 431.280 477.055, 428.294 476.613, 425.174 476.399 L 419.500 476.010 422.500 478.556" stroke="none" fill="#c4c4c4" fill-rule="evenodd"/><path d="M 561.534 1.550 C 559.928 2.764, 556.859 2.948, 544.746 2.552 C 529.946 2.070, 529.923 2.072, 529.039 4.398 C 527.897 7.401, 525.636 8.218, 520.571 7.458 C 516.829 6.897, 516.295 7.110, 514.144 10.019 C 511.677 13.356, 510.020 13.543, 501.601 11.436 C 499.523 10.915, 498.905 11.037, 499.416 11.864 C 500.684 13.915, 498.996 16.806, 495.901 17.885 C 493.595 18.689, 491.813 18.573, 488.347 17.396 C 485.852 16.549, 483.711 16.001, 483.589 16.178 C 483.468 16.355, 482.948 18.300, 482.434 20.500 C 481.611 24.026, 481.124 24.536, 478.322 24.808 C 476.563 24.978, 473.241 24.197, 470.884 23.058 C 468.541 21.926, 466.546 21, 466.451 21 C 466.355 21, 466.483 22.075, 466.734 23.388 C 467.822 29.081, 463.821 31.243, 456.229 29.066 C 453.150 28.183, 452.897 28.311, 451.594 31.428 C 450.044 35.138, 446.335 36.459, 442.051 34.827 C 440.009 34.050, 439.300 34.202, 438.500 35.590 C 435.329 41.090, 431.125 42.356, 425.601 39.476 C 424.007 38.645, 422.626 38.085, 422.532 38.232 C 422.438 38.379, 421.796 40.465, 421.105 42.868 L 419.849 47.235 414.225 46.769 C 411.132 46.512, 408.428 45.784, 408.217 45.151 C 408.006 44.518, 407.196 44, 406.417 44 C 405.462 44, 405 45.150, 405 47.525 C 405 50.312, 404.504 51.238, 402.633 51.949 C 399.897 52.990, 392.720 51.660, 392.170 50.011 C 391.545 48.134, 389 51.004, 389 53.587 C 389 54.880, 388.133 56.394, 387.066 56.965 C 384.612 58.278, 378.911 58.297, 375.508 57.003 C 373.832 56.366, 373.103 56.358, 373.489 56.982 C 374.161 58.069, 372.296 62.113, 370.623 63.200 C 370.030 63.584, 367.647 63.639, 365.326 63.321 C 361.441 62.789, 360.838 63.030, 357.686 66.371 C 353.753 70.542, 350.930 70.956, 348.298 67.750 C 345.481 64.318, 344.232 64.665, 343.485 69.090 C 342.972 72.124, 342.191 73.357, 340.337 74.062 C 336.671 75.456, 332.410 75.199, 331 73.500 C 329.078 71.184, 328 71.710, 328 74.965 C 328 78.699, 325.715 80, 319.155 80 C 314.934 80, 313.821 80.425, 311.827 82.794 C 308.181 87.127, 307.381 87.277, 302.487 84.545 C 299.980 83.145, 297.778 82, 297.592 82 C 297.407 82, 296.966 83.813, 296.611 86.029 C 296.136 89.001, 295.316 90.355, 293.484 91.189 C 290.472 92.562, 286 90.923, 286 88.448 C 286 87.470, 285.324 86.981, 284.250 87.185 C 283.058 87.411, 282.402 88.630, 282.194 91.008 C 282.026 92.929, 281.152 95.063, 280.253 95.750 C 278.304 97.240, 270.380 97.424, 269.500 96 C 268.328 94.104, 266 94.969, 266 97.300 C 266 100.952, 264.077 102, 257.382 102 C 251.353 102, 251.097 102.107, 249 105.500 C 246.526 109.503, 246.479 109.516, 241.654 107.500 C 236.743 105.448, 236.452 105.527, 234.604 109.423 C 232.437 113.988, 228.647 114.842, 222.892 112.062 C 220.545 110.928, 218.484 110, 218.312 110 C 218.140 110, 218 111.791, 218 113.981 C 218 117.416, 217.650 118.050, 215.446 118.603 C 212.853 119.254, 207.931 118.736, 204.750 117.478 C 203.349 116.924, 203 117.315, 203 119.441 C 203 123.494, 198.143 125.252, 192.052 123.404 C 186.061 121.585, 186 121.596, 186 124.500 C 186 127.416, 182.797 131, 180.191 131 C 179.196 131, 177.509 130.339, 176.441 129.532 C 173.644 127.416, 172.301 127.665, 171.607 130.430 C 171.271 131.767, 170.291 133.567, 169.427 134.430 C 167.179 136.678, 161.424 136.424, 158.968 133.968 C 156.315 131.315, 154.500 132.546, 154.500 137 L 154.500 140.500 148.057 140.803 C 143.128 141.034, 141.307 141.544, 140.306 142.974 C 139.586 144.001, 137.668 145.134, 136.044 145.490 C 134.254 145.884, 132.823 146.984, 132.410 148.284 C 131.250 151.940, 123.447 159, 120.567 159 C 118.128 159, 118.012 159.222, 118.584 162.798 C 119.241 166.907, 117.329 169.724, 114.595 168.675 C 112.479 167.863, 112 170.117, 112 180.882 C 112 190.881, 112.728 193, 116.165 193 C 118.260 193, 120 195.887, 120 199.363 C 120 200.735, 120.713 202.571, 121.586 203.443 C 122.754 204.611, 123.001 206.037, 122.523 208.864 C 121.918 212.445, 122.170 212.982, 126.311 216.928 C 131.019 221.415, 136 224.506, 136 222.941 C 136 221.661, 139.723 221.743, 140.525 223.041 C 140.879 223.613, 142.988 225.230, 145.213 226.634 C 150.517 229.983, 162.536 241.609, 165.033 245.807 C 166.115 247.626, 167 249.972, 167 251.021 C 167 253.925, 178.342 262.985, 181.080 262.269 C 182.463 261.907, 183.566 262.260, 184.114 263.239 C 184.587 264.085, 186.094 265.058, 187.461 265.401 C 189.904 266.014, 195.939 269.741, 198.964 272.504 C 203.397 276.553, 204.832 278.192, 208.470 283.360 C 210.653 286.462, 212.742 289, 213.111 289 C 213.481 289, 214.094 290.237, 214.473 291.750 C 214.853 293.262, 217.921 297.173, 221.291 300.440 C 226.374 305.367, 227.951 306.345, 230.538 306.171 C 234.663 305.893, 242.714 309.524, 243.506 312.020 C 243.852 313.109, 244.506 314, 244.959 314 C 246.230 314, 259.406 327.889, 260.226 330.093 C 260.625 331.166, 261.610 332.297, 262.415 332.606 C 263.219 332.914, 264.151 334.412, 264.486 335.935 C 264.820 337.457, 267.660 341.275, 270.797 344.420 C 276.268 349.905, 276.664 350.113, 280.537 349.539 C 284.085 349.014, 284.994 349.321, 288.037 352.074 C 289.942 353.797, 293.068 356.398, 294.985 357.854 C 296.902 359.309, 299.602 361.850, 300.985 363.500 C 302.368 365.150, 304.963 368.032, 306.750 369.903 C 308.538 371.775, 310 374.090, 310 375.046 C 310 376.003, 310.675 377.045, 311.500 377.362 C 312.325 377.678, 313 378.758, 313 379.760 C 313 382.246, 321.077 390, 323.665 390 C 324.815 390, 326.315 390.675, 327 391.500 C 327.685 392.325, 329.429 393, 330.876 393 C 333.822 393, 340.831 397.661, 346.050 403.089 C 356.234 413.683, 359.970 418.296, 361.131 421.714 C 362.484 425.696, 365.961 429.536, 369.122 430.539 C 370.155 430.867, 371 431.779, 371 432.567 C 371 433.574, 372.200 434, 375.040 434 C 380.921 434, 386.607 437.340, 394.255 445.288 C 401.045 452.344, 408 461.822, 408 464.019 C 408 465.013, 412.396 469.520, 418.481 474.765 C 419.288 475.461, 422.401 476.201, 425.398 476.409 C 431.981 476.866, 433 477.415, 433 480.500 C 433 483.780, 434.197 484.233, 438.317 482.512 C 441.179 481.316, 443.354 481.226, 449.813 482.036 C 454.561 482.631, 458.732 482.676, 460.139 482.146 C 461.438 481.657, 463.950 481.474, 465.723 481.738 C 468.592 482.166, 469.673 481.521, 475.584 475.859 C 479.235 472.362, 482.594 468.532, 483.049 467.348 C 483.630 465.836, 485.082 464.993, 487.933 464.511 C 492.874 463.677, 493.909 462.325, 491.108 460.363 C 489.949 459.551, 489 457.805, 489 456.482 C 489 453.706, 492.538 450, 495.189 450 C 497.578 450, 497.634 444.554, 495.313 438.019 C 493.798 433.754, 493.777 432.872, 495.099 429.385 C 496.262 426.315, 497.160 425.432, 499.377 425.175 C 502.143 424.854, 502.174 424.776, 501.554 419.675 C 499.237 400.629, 499.899 397.430, 505.909 398.632 C 508.536 399.157, 508.791 398.926, 509.450 395.414 C 510.048 392.228, 509.820 391.373, 508.011 390.008 C 505.451 388.078, 504.351 381.743, 505.884 377.767 C 506.714 375.614, 507.794 374.897, 510.969 374.389 C 514.385 373.843, 515 373.376, 515 371.332 C 515 370.006, 514.100 367.156, 513 365 C 509.994 359.107, 510.348 354.727, 514.085 351.582 C 515.781 350.155, 517.581 349.241, 518.085 349.552 C 519.497 350.425, 519.168 343.877, 517.526 338.420 C 515.337 331.148, 517.766 323, 522.122 323 C 524.331 323, 524.430 321.702, 522.817 313.893 C 521.900 309.455, 521.906 307.259, 522.839 304.142 C 523.938 300.476, 524.377 300.091, 527.772 299.809 C 531.404 299.508, 531.508 299.388, 531.813 295.132 C 532.054 291.771, 531.638 290.243, 530.007 288.507 C 528.411 286.809, 527.877 284.937, 527.846 280.933 C 527.801 275.129, 529.112 273.365, 534.250 272.313 C 536.475 271.857, 537 271.206, 537 268.899 C 537 267.331, 536.102 264.575, 535.004 262.774 C 533.906 260.973, 533.006 258.098, 533.004 256.385 C 532.999 252.360, 536.414 248, 539.573 248 C 541.663 248, 542 247.531, 542 244.626 C 542 242.770, 541.325 239.338, 540.500 237 C 537.528 228.577, 539.621 221.312, 544.738 222.290 C 547.494 222.817, 547.502 222.473, 545.026 210.599 C 544.331 207.265, 544.330 204.487, 545.025 201.908 C 545.950 198.473, 546.395 198.089, 549.773 197.809 C 553.285 197.518, 553.518 197.286, 553.808 193.788 C 554.023 191.199, 553.467 189.198, 551.970 187.173 C 548.876 182.988, 548.865 175.337, 551.950 172.839 C 553.199 171.828, 555.297 171, 556.611 171 C 559.679 171, 559.828 167.544, 557 162 C 554.466 157.033, 554.463 152.394, 556.989 148.250 C 558.379 145.970, 559.721 145, 561.485 145 C 563.589 145, 564 144.530, 564 142.122 C 564 140.539, 563.325 137.629, 562.500 135.654 C 560.560 131.012, 560.586 125.037, 562.557 122.223 C 564.224 119.841, 567.956 119.183, 568.068 121.250 C 568.105 121.938, 568.615 121.506, 569.202 120.292 C 570.008 118.623, 569.895 117.282, 568.737 114.792 C 566.425 109.818, 565.735 103.698, 566.970 99.113 C 568.026 95.189, 568.256 95, 571.975 95 C 575.641 95, 575.892 94.807, 576.190 91.750 C 576.406 89.530, 575.792 87.604, 574.253 85.673 C 572.614 83.616, 572 81.525, 572 77.995 C 572 72.522, 573.621 70.226, 578.121 69.326 C 581.566 68.637, 581.581 68.447, 578.866 60.017 L 576.733 53.393 578.810 48.696 C 580.515 44.842, 581.353 44, 583.481 44 L 586.075 44 585.788 34.793 C 585.510 25.896, 585.416 25.566, 583 25.001 C 581.131 24.563, 579.973 23.098, 578.412 19.197 C 577.140 16.020, 574.551 12.321, 571.791 9.740 C 569.299 7.408, 566.967 4.263, 566.611 2.750 C 565.887 -0.320, 564.455 -0.658, 561.534 1.550 M 1030.138 33.685 C 1027.896 33.991, 1026.607 34.786, 1026.271 36.072 C 1025.841 37.717, 1024.848 38, 1019.518 38 C 1014.784 38, 1012.654 38.485, 1010.727 40 C 1009.329 41.100, 1007.278 42, 1006.169 42 C 1005.060 42, 1002.816 43.125, 1001.182 44.500 C 999.548 45.875, 997.664 47, 996.995 47 C 995.217 47, 986.202 53.031, 985.588 54.632 C 985.299 55.384, 984.404 56, 983.599 56 C 982.794 56, 981.849 56.900, 981.500 58 C 981.151 59.100, 980.178 60, 979.339 60 C 978.500 60, 977.581 60.885, 977.298 61.967 C 977.016 63.049, 975.933 64.204, 974.892 64.534 C 973.851 64.865, 973 66.004, 973 67.067 C 973 68.311, 972.311 69, 971.067 69 C 970.004 69, 968.849 69.900, 968.500 71.001 C 968.150 72.102, 966.995 73.467, 965.932 74.036 C 964.870 74.605, 964 75.660, 964 76.380 C 964 77.101, 963.140 78.468, 962.090 79.419 C 961.039 80.369, 959.884 82.324, 959.523 83.763 C 959.162 85.201, 957.997 87.600, 956.934 89.093 C 955.863 90.597, 955 93.454, 955 95.494 C 955 98.084, 954.346 99.709, 952.802 100.959 C 950.868 102.526, 950.555 103.925, 950.193 112.620 C 949.910 119.420, 949.322 123.021, 948.306 124.172 C 947.494 125.092, 946.591 127.627, 946.299 129.806 C 945.765 133.788, 947.471 141, 948.946 141 C 949.382 141, 949.952 145.811, 950.213 151.691 C 950.638 161.243, 950.918 162.534, 952.844 163.813 C 954.413 164.854, 955 166.263, 955 168.987 C 955 171.100, 955.805 173.769, 956.848 175.115 C 957.864 176.427, 958.970 178.625, 959.306 180 C 959.936 182.578, 961.943 185.619, 965.605 189.544 C 966.762 190.785, 968.002 192.563, 968.360 193.495 C 968.717 194.427, 969.866 195.414, 970.913 195.687 C 971.959 195.961, 973.040 197.043, 973.314 198.092 C 973.588 199.142, 974.530 200, 975.406 200 C 976.283 200, 977 200.517, 977 201.149 C 977 202.533, 983.493 209, 984.883 209 C 985.423 209, 986.151 209.900, 986.500 211 C 986.849 212.100, 987.747 213, 988.496 213 C 989.245 213, 990.549 213.691, 991.394 214.536 C 992.239 215.381, 994.444 216.705, 996.295 217.479 C 998.145 218.252, 1000.241 219.585, 1000.952 220.442 C 1001.663 221.299, 1003.066 222, 1004.070 222 C 1005.073 222, 1008.010 223.125, 1010.596 224.500 C 1013.750 226.177, 1016.895 227, 1020.149 227 C 1023.667 227, 1025.550 227.550, 1027 229 C 1028.891 230.891, 1030.333 231, 1053.365 231 C 1076.216 231, 1077.888 230.876, 1080.273 229 C 1081.968 227.667, 1084.330 227, 1087.356 227 C 1090.814 227, 1092.541 226.404, 1094.595 224.500 C 1096.310 222.910, 1098.463 222, 1100.511 222 C 1102.282 222, 1104.874 221.100, 1106.273 220 C 1107.671 218.900, 1109.226 218, 1109.727 218 C 1110.229 218, 1111.618 216.875, 1112.813 215.500 C 1114.009 214.125, 1115.800 213, 1116.794 213 C 1117.788 213, 1120.604 210.984, 1123.051 208.520 C 1125.498 206.056, 1128.063 204.031, 1128.750 204.020 C 1129.438 204.009, 1130 203.505, 1130 202.901 C 1130 202.296, 1132.025 199.889, 1134.500 197.551 C 1136.975 195.213, 1139 192.960, 1139 192.545 C 1139 192.129, 1140.125 190.452, 1141.500 188.818 C 1142.875 187.184, 1144 185.081, 1144 184.146 C 1144 183.210, 1144.900 181.674, 1146 180.732 C 1147.100 179.790, 1148 178.203, 1148 177.204 C 1148 176.206, 1149.125 173.864, 1150.500 172 C 1152.205 169.689, 1153 167.313, 1153 164.528 C 1153 161.682, 1153.606 159.926, 1155 158.732 C 1156.898 157.107, 1157 155.782, 1157 132.645 C 1157 110.429, 1156.836 108.058, 1155.145 105.885 C 1154.125 104.573, 1153.052 101.332, 1152.760 98.682 C 1152.418 95.570, 1151.481 93.165, 1150.115 91.893 C 1148.952 90.809, 1148 88.884, 1148 87.616 C 1148 86.348, 1147.100 84.495, 1146 83.500 C 1144.900 82.505, 1144 81.015, 1144 80.189 C 1144 78.612, 1140.155 72.988, 1136.598 69.361 C 1135.444 68.184, 1133.150 65.607, 1131.500 63.633 C 1129.850 61.658, 1128.183 60.033, 1127.795 60.022 C 1127.408 60.010, 1126.005 58.988, 1124.679 57.750 C 1120.083 53.463, 1116.492 51.027, 1114.750 51.013 C 1113.787 51.006, 1113 50.582, 1113 50.071 C 1113 48.282, 1103.485 42.741, 1099.511 42.215 C 1097.234 41.914, 1094.935 40.889, 1094.193 39.843 C 1093.214 38.462, 1091.601 38, 1087.758 38 C 1083.815 38, 1082.075 37.480, 1080.235 35.750 C 1077.911 33.566, 1077.193 33.496, 1055.670 33.363 C 1043.477 33.288, 1031.987 33.433, 1030.138 33.685 M 742.995 40.010 C 742.107 41.668, 742.364 42.433, 744.459 44.375 C 746.248 46.032, 747 47.766, 747 50.230 C 747 52.216, 747.865 54.830, 749 56.273 C 750.100 57.671, 751 59.722, 751 60.831 C 751 61.940, 752.125 64.184, 753.500 65.818 C 754.979 67.575, 756 70.043, 756 71.859 C 756 73.906, 756.667 75.286, 758 76 C 759.298 76.695, 760 78.094, 760 79.988 C 760 83.123, 761.856 88, 763.049 88 C 763.450 88, 764.092 89.688, 764.477 91.750 C 764.862 93.813, 766.037 96.305, 767.088 97.289 C 768.140 98.273, 769 100.385, 769 101.982 C 769 103.664, 769.775 105.436, 770.843 106.193 C 771.917 106.955, 772.918 109.258, 773.243 111.715 C 773.549 114.034, 774.745 117.132, 775.900 118.600 C 777.055 120.068, 778 122.338, 778 123.645 C 778 124.951, 778.900 126.790, 780 127.732 C 781.100 128.674, 782 130.499, 782 131.788 C 782 134.943, 783.740 138, 785.535 138 C 786.598 138, 787 139.198, 787 142.365 C 787 145.216, 787.694 147.612, 789 149.273 C 790.100 150.671, 791 152.696, 791 153.773 C 791 154.849, 791.863 156.827, 792.918 158.168 C 793.973 159.509, 795.145 162.255, 795.523 164.269 C 795.958 166.592, 796.903 168.152, 798.105 168.533 C 799.472 168.967, 800 170.075, 800 172.511 C 800 174.656, 800.674 176.363, 801.848 177.193 C 803.033 178.032, 803.888 180.227, 804.233 183.318 C 804.579 186.422, 805.522 188.838, 806.885 190.107 C 808.101 191.240, 809 193.313, 809 194.982 C 809 196.713, 809.776 198.430, 810.921 199.232 C 812.026 200.006, 812.982 202.048, 813.171 204.039 C 813.403 206.481, 814.162 207.791, 815.750 208.487 C 817.561 209.281, 818 210.281, 818 213.602 C 818 215.954, 818.753 218.761, 819.750 220.127 C 820.712 221.445, 821.999 223.418, 822.608 224.511 C 823.659 226.396, 824.948 226.514, 847.269 226.768 C 873.228 227.063, 874 226.895, 874 220.964 C 874 219.094, 874.707 217.692, 876 217 C 877.415 216.243, 878 214.906, 878 212.433 C 878 210.258, 878.563 208.721, 879.491 208.365 C 880.311 208.050, 881.521 205.927, 882.180 203.647 C 882.839 201.366, 884.193 198.427, 885.189 197.115 C 886.185 195.803, 887 193.099, 887 191.106 C 887 188.621, 887.601 187.106, 888.910 186.288 C 889.961 185.632, 891.144 183.611, 891.540 181.798 C 891.937 179.984, 893.102 177.427, 894.130 176.115 C 895.159 174.803, 896 172.727, 896 171.500 C 896 170.273, 896.831 168.197, 897.847 166.885 C 898.863 165.573, 899.954 162.846, 900.272 160.825 C 900.590 158.804, 901.784 156.216, 902.925 155.075 C 904.066 153.934, 905 151.750, 905 150.222 C 905 148.682, 905.891 146.682, 907 145.732 C 908.100 144.790, 909 142.910, 909 141.554 C 909 140.198, 910.125 137.431, 911.500 135.405 C 912.875 133.379, 914 130.317, 914 128.601 C 914 126.564, 914.694 125.048, 916 124.232 C 917.334 123.399, 918 121.900, 918 119.732 C 918 117.646, 918.666 116.065, 919.859 115.320 C 920.882 114.682, 922.003 112.737, 922.350 110.998 C 922.698 109.260, 923.886 106.689, 924.991 105.284 C 926.295 103.626, 927 101.222, 927 98.433 C 927 95.013, 927.409 94.005, 929 93.500 C 930.390 93.059, 931 91.987, 931 89.984 C 931 88.297, 932.036 85.985, 933.500 84.405 C 934.883 82.913, 936 80.502, 936 79.009 C 936 77.525, 936.900 75.495, 938 74.500 C 939.100 73.505, 940 71.695, 940 70.480 C 940 69.264, 940.885 67.145, 941.967 65.770 C 943.048 64.394, 944.245 61.296, 944.626 58.885 C 945.020 56.394, 946.114 53.936, 947.159 53.193 C 948.295 52.387, 949 50.654, 949 48.666 C 949 46.693, 949.767 44.787, 950.979 43.750 C 953.322 41.744, 952.679 39.203, 949.640 38.459 C 948.463 38.171, 937.375 38.062, 925 38.218 L 902.500 38.500 902.193 42.750 C 901.987 45.591, 901.418 47, 900.478 47 C 898.737 47, 897 50.093, 897 53.194 C 897 54.473, 896.100 56.081, 895 56.768 C 893.764 57.540, 893 59.100, 893 60.853 C 893 62.420, 892.105 64.500, 891 65.500 C 889.900 66.495, 889 68.031, 889 68.913 C 889 69.795, 887.875 72.629, 886.500 75.212 C 885.125 77.795, 884 81.263, 884 82.919 C 884 84.906, 883.320 86.294, 882 87 C 880.667 87.714, 880 89.094, 880 91.141 C 880 92.957, 878.979 95.425, 877.500 97.182 C 876.125 98.816, 875 101.060, 875 102.169 C 875 103.278, 874.100 105.329, 873 106.727 C 871.865 108.170, 871 110.784, 871 112.770 C 871 115.220, 870.249 116.966, 868.500 118.588 C 867.094 119.891, 866 122.019, 866 123.452 C 866 124.854, 865.100 126.900, 864 128 C 862.900 129.100, 862 131.064, 862 132.365 C 862 133.666, 861.096 135.879, 859.992 137.283 C 858.888 138.687, 857.702 141.897, 857.356 144.418 C 856.989 147.098, 856.206 149, 855.471 149 C 853.979 149, 853 151.224, 853 154.613 C 853 155.960, 852.342 157.315, 851.538 157.624 C 850.734 157.932, 849.802 159.050, 849.466 160.107 C 848.600 162.834, 847 161.434, 847 157.949 C 847 156.100, 846.261 154.556, 845 153.768 C 843.785 153.009, 843 151.436, 843 149.759 C 843 148.242, 842.125 146.125, 841.055 145.055 C 839.986 143.986, 838.685 140.769, 838.165 137.906 C 837.629 134.961, 836.520 132.311, 835.609 131.801 C 834.705 131.295, 834 129.625, 834 127.989 C 834 126.388, 833.151 124.273, 832.114 123.289 C 831.076 122.305, 829.914 119.601, 829.531 117.279 C 829.148 114.958, 827.971 111.962, 826.917 110.622 C 825.863 109.281, 825 107.304, 825 106.227 C 825 105.151, 824.170 103.197, 823.155 101.885 C 822.140 100.573, 821.012 97.965, 820.648 96.089 C 820.284 94.213, 819.089 92.050, 817.993 91.282 C 816.594 90.302, 816 88.748, 816 86.066 C 816 83.898, 815.354 81.709, 814.507 81.006 C 813.686 80.325, 812.518 77.923, 811.911 75.669 C 811.304 73.415, 809.951 70.481, 808.904 69.150 C 807.857 67.819, 807 65.670, 807 64.374 C 807 63.077, 806.100 61.455, 805 60.768 C 803.598 59.892, 803 58.436, 803 55.894 C 803 53.845, 802.173 51.218, 801.096 49.850 C 800.049 48.519, 798.695 45.579, 798.086 43.318 C 797.477 41.056, 796.271 38.934, 795.407 38.603 C 794.543 38.271, 782.639 38, 768.953 38 C 745.052 38, 744.028 38.079, 742.995 40.010 M 1185.667 38.667 C 1185.300 39.033, 1185 81.285, 1185 132.560 C 1185 216.647, 1185.155 225.846, 1186.582 226.393 C 1187.452 226.727, 1229.077 227, 1279.082 227 C 1368.667 227, 1370.029 226.971, 1372 225 C 1373.308 223.692, 1374 221.667, 1374 219.146 C 1374 216.421, 1374.732 214.502, 1376.500 212.595 C 1377.875 211.111, 1379 208.865, 1379 207.603 C 1379 206.342, 1379.900 204.495, 1381 203.500 C 1382.100 202.505, 1383 200.470, 1383 198.980 C 1383 197.489, 1383.846 195.195, 1384.879 193.880 C 1385.913 192.566, 1386.932 190.593, 1387.143 189.496 C 1387.518 187.546, 1388.457 187.494, 1428.263 187.239 L 1469 186.978 1469 190.454 C 1469 192.823, 1469.594 194.248, 1470.866 194.928 C 1472.120 195.599, 1472.901 197.427, 1473.248 200.504 C 1473.531 203.021, 1474.486 205.880, 1475.370 206.856 C 1476.253 207.832, 1477.258 210.041, 1477.603 211.765 C 1477.948 213.488, 1479.078 215.666, 1480.115 216.604 C 1481.238 217.621, 1482 219.647, 1482 221.620 C 1482 223.869, 1482.620 225.261, 1483.934 225.965 C 1486.808 227.503, 1531.247 227.353, 1532.800 225.800 C 1534.936 223.664, 1534.230 218.118, 1531.500 215.588 C 1529.751 213.966, 1529 212.220, 1529 209.770 C 1529 207.845, 1528.169 205.197, 1527.152 203.885 C 1526.136 202.573, 1524.983 200.186, 1524.591 198.579 C 1524.198 196.972, 1523.004 194.549, 1521.938 193.194 C 1520.872 191.839, 1520 189.670, 1520 188.374 C 1520 187.077, 1519.100 185.455, 1518 184.768 C 1516.676 183.941, 1516 182.436, 1516 180.316 C 1516 178.348, 1515.291 176.610, 1514.162 175.807 C 1513.151 175.088, 1512.039 172.715, 1511.690 170.533 C 1511.341 168.351, 1510.143 165.332, 1509.028 163.824 C 1507.912 162.315, 1507 160.223, 1507 159.175 C 1507 158.127, 1506.100 156.126, 1505 154.727 C 1503.900 153.329, 1503 151.278, 1503 150.169 C 1503 149.060, 1501.875 146.816, 1500.500 145.182 C 1499.125 143.548, 1498 141.064, 1498 139.662 C 1498 138.260, 1497.171 136.525, 1496.157 135.807 C 1495.083 135.045, 1494.082 132.742, 1493.757 130.285 C 1493.451 127.966, 1492.255 124.868, 1491.100 123.400 C 1489.945 121.932, 1489 119.736, 1489 118.520 C 1489 117.305, 1488.100 115.495, 1487 114.500 C 1485.900 113.505, 1485 111.427, 1485 109.884 C 1485 108.341, 1484.152 106.273, 1483.116 105.289 C 1482.081 104.305, 1480.919 102.034, 1480.535 100.242 C 1480.151 98.450, 1478.974 96.521, 1477.919 95.956 C 1476.540 95.219, 1476 93.852, 1476 91.100 C 1476 88.876, 1475.216 86.270, 1474.130 84.885 C 1473.102 83.573, 1471.951 81.084, 1471.574 79.354 C 1471.196 77.623, 1470.012 75.416, 1468.943 74.449 C 1467.874 73.481, 1467 71.480, 1467 70 C 1467 68.520, 1466.100 66.495, 1465 65.500 C 1463.900 64.505, 1463 62.435, 1463 60.902 C 1463 59.289, 1462.193 57.548, 1461.086 56.773 C 1460.033 56.035, 1458.847 53.702, 1458.450 51.587 C 1457.977 49.062, 1457.089 47.575, 1455.864 47.254 C 1454.550 46.911, 1453.995 45.842, 1453.985 43.633 C 1453.956 37.832, 1454.477 37.940, 1428.038 38.232 C 1404.949 38.486, 1403.660 38.601, 1402.608 40.489 C 1401.999 41.582, 1400.713 43.555, 1399.750 44.873 C 1398.787 46.191, 1398 48.845, 1398 50.770 C 1398 53.220, 1397.249 54.966, 1395.500 56.588 C 1394.125 57.862, 1393 59.951, 1393 61.230 C 1393 62.509, 1392.100 64.326, 1391 65.268 C 1389.867 66.238, 1389 68.218, 1389 69.835 C 1389 71.405, 1388.152 73.458, 1387.115 74.396 C 1386.078 75.334, 1384.948 77.512, 1384.603 79.235 C 1384.258 80.959, 1383.253 83.168, 1382.370 84.144 C 1381.486 85.120, 1380.531 87.979, 1380.248 90.496 C 1379.901 93.573, 1379.120 95.401, 1377.866 96.072 C 1376.661 96.717, 1376 98.168, 1376 100.171 C 1376 102.193, 1375.131 104.076, 1373.500 105.588 C 1372.125 106.862, 1371 108.868, 1371 110.045 C 1371 111.222, 1370.100 113.329, 1369 114.727 C 1367.900 116.126, 1367 118.127, 1367 119.175 C 1367 120.223, 1366.088 122.315, 1364.972 123.824 C 1363.857 125.332, 1362.659 128.351, 1362.310 130.533 C 1361.961 132.715, 1360.849 135.088, 1359.838 135.807 C 1358.709 136.610, 1358 138.348, 1358 140.316 C 1358 142.365, 1357.324 143.941, 1356.124 144.690 C 1355.093 145.335, 1353.943 147.493, 1353.568 149.487 C 1353.194 151.480, 1352.014 153.986, 1350.944 155.056 C 1349.875 156.125, 1349 157.942, 1349 159.092 C 1349 160.243, 1348.100 162.329, 1347 163.727 C 1345.694 165.388, 1345 167.784, 1345 170.635 C 1345 173.802, 1344.598 175, 1343.535 175 C 1341.743 175, 1340 178.055, 1340 181.194 C 1340 182.473, 1339.100 184.081, 1338 184.768 C 1336.627 185.626, 1336 187.100, 1336 189.473 C 1336 191.881, 1335.406 193.247, 1334.043 193.977 C 1332.895 194.592, 1331.811 196.569, 1331.419 198.762 C 1331.053 200.818, 1329.948 203.400, 1328.964 204.500 C 1327.980 205.600, 1326.972 207.625, 1326.724 209 C 1326.476 210.375, 1326.211 207.083, 1326.136 201.684 C 1326.061 196.286, 1325.534 190.998, 1324.965 189.934 C 1323.965 188.065, 1322.391 188, 1278.465 188 L 1233 188 1233 114.582 C 1233 74.202, 1232.727 40.452, 1232.393 39.582 C 1231.864 38.204, 1228.861 38, 1209.060 38 C 1196.560 38, 1186.033 38.300, 1185.667 38.667 M 1549.200 39.200 C 1548.284 40.116, 1548 62.117, 1548 132.129 C 1548 215.397, 1548.150 224.007, 1549.622 225.479 C 1551.044 226.901, 1554.136 227.064, 1574.660 226.801 C 1594.158 226.550, 1598.234 226.249, 1599.022 225 C 1599.545 224.172, 1599.976 213.313, 1599.985 200.750 L 1600 178 1615.955 178 C 1631.715 178, 1631.940 178.031, 1634.455 180.545 C 1635.855 181.945, 1637 183.505, 1637 184.010 C 1637 184.516, 1637.900 185.411, 1639 186 C 1640.100 186.589, 1641 187.570, 1641 188.182 C 1641 189.446, 1647.601 199.657, 1648.748 200.166 C 1649.161 200.350, 1650.306 202.075, 1651.291 204 C 1654.326 209.931, 1655.356 211.377, 1659.750 215.883 C 1662.363 218.563, 1664 221.167, 1664 222.645 C 1664 224.306, 1664.793 225.351, 1666.565 226.025 C 1669.320 227.072, 1713.008 227.372, 1716.750 226.370 C 1719.681 225.584, 1719.841 221.007, 1717 219.232 C 1715.900 218.545, 1715 217.449, 1715 216.795 C 1715 215.025, 1710.014 208.077, 1705.750 203.904 C 1703.688 201.885, 1702 199.278, 1702 198.110 C 1702 196.942, 1700.875 195.009, 1699.500 193.813 C 1698.125 192.618, 1697 191.076, 1697 190.387 C 1697 189.698, 1696.100 188.849, 1695 188.500 C 1693.768 188.109, 1693 186.987, 1693 185.579 C 1693 183.463, 1691.017 180.549, 1686.127 175.475 C 1685.053 174.361, 1683.868 171.812, 1683.492 169.811 C 1682.900 166.652, 1683.119 166.008, 1685.155 164.927 C 1686.445 164.243, 1688.052 162.905, 1688.727 161.956 C 1689.401 161.006, 1691.031 159.958, 1692.348 159.627 C 1695.418 158.857, 1702 151.607, 1702 148.997 C 1702 147.899, 1702.599 147, 1703.332 147 C 1704.917 147, 1711 137.933, 1711 135.570 C 1711 134.662, 1711.941 132.646, 1713.091 131.090 C 1715.062 128.425, 1715.183 127, 1715.196 106.425 C 1715.208 85.425, 1715.128 84.522, 1713.104 82.883 C 1711.688 81.736, 1711 80.031, 1711 77.666 C 1711 75.378, 1710.128 73.118, 1708.500 71.182 C 1707.125 69.548, 1706 67.700, 1706 67.074 C 1706 66.449, 1705.291 65.665, 1704.423 65.332 C 1703.556 64.999, 1702.442 63.664, 1701.948 62.364 C 1701.454 61.064, 1700.394 60, 1699.592 60 C 1698.791 60, 1697.849 59.100, 1697.500 58 C 1697.151 56.900, 1696.236 56, 1695.468 56 C 1694.699 56, 1693.631 55.180, 1693.095 54.177 C 1691.793 51.744, 1684.849 47, 1682.591 47 C 1681.600 47, 1679.452 45.875, 1677.818 44.500 C 1675.799 42.801, 1673.639 42, 1671.078 42 C 1668.580 42, 1666.700 41.326, 1665.500 40 C 1663.731 38.045, 1662.420 38, 1607.045 38 C 1564.321 38, 1550.105 38.295, 1549.200 39.200 M 1744.200 39.200 C 1743.284 40.116, 1743 62.237, 1743 132.665 C 1743 222.861, 1743.043 224.953, 1744.934 225.965 C 1746.216 226.651, 1771.159 227, 1818.899 227 C 1889.090 227, 1890.956 226.951, 1891.965 225.066 C 1892.552 223.969, 1893 216.363, 1893 207.500 C 1893 198.637, 1892.552 191.031, 1891.965 189.934 C 1890.963 188.063, 1889.363 188, 1842.965 188 L 1795 188 1795 170 L 1795 152 1834.250 151.900 C 1855.838 151.845, 1874.625 151.488, 1876 151.105 L 1878.500 150.410 1878.500 131.955 L 1878.500 113.500 1836.727 113.239 L 1794.955 112.978 1795.227 94.739 L 1795.500 76.500 1842.410 76.240 C 1875.018 76.059, 1889.728 75.641, 1890.660 74.868 C 1892.476 73.360, 1892.604 41.004, 1890.800 39.200 C 1889.064 37.464, 1745.936 37.464, 1744.200 39.200 M 500.743 75.590 C 500.334 75.999, 500 78.010, 500 80.060 C 500 84.424, 497.823 85.872, 495.813 82.845 C 493.807 79.824, 487.340 79.862, 484.873 82.909 C 483.843 84.181, 483 86.072, 483 87.111 C 483 89.444, 481.652 89.499, 477.957 87.315 C 474.295 85.152, 470.308 86.723, 468.710 90.958 C 467.742 93.521, 467.242 93.802, 464.555 93.295 C 462.875 92.978, 460.704 92.311, 459.731 91.814 C 457.494 90.670, 452.359 93.520, 451.629 96.310 C 451.175 98.045, 450.543 98.197, 446.185 97.619 C 439.615 96.747, 438.271 97.435, 437.488 102.073 C 437.124 104.227, 436.407 106.249, 435.895 106.565 C 435.383 106.882, 433.406 106.178, 431.503 105.002 C 426.466 101.889, 422.930 102.621, 420.671 107.243 C 419.128 110.401, 418.552 110.831, 416.987 109.993 C 412.303 107.486, 403 109.904, 403 113.629 C 403 114.883, 402.047 115.025, 397.461 114.452 C 390.994 113.644, 387.965 115.365, 388.738 119.408 C 389.301 122.354, 387.277 123.761, 385.659 121.549 C 384.823 120.405, 382.819 119.860, 379.141 119.776 C 373.183 119.640, 372.040 120.598, 372.015 125.750 C 371.998 129.517, 370.222 130.008, 367.500 127 C 364.990 124.226, 359.931 124.380, 357.174 127.314 C 355.978 128.587, 355 130.114, 355 130.707 C 355 132.451, 352.169 133.034, 349.533 131.833 C 345.971 130.210, 341 132.417, 341 135.621 C 341 138.338, 340.557 138.421, 334.384 136.866 C 328.335 135.343, 325 136.776, 325 140.898 C 325 143.783, 324.932 143.820, 321.460 142.861 C 319.513 142.324, 316.265 142.023, 314.242 142.192 C 310.850 142.476, 310.493 142.811, 309.649 146.500 C 309.146 148.700, 308.578 150.679, 308.386 150.899 C 308.193 151.118, 306.043 150.240, 303.607 148.947 C 299.777 146.916, 298.815 146.763, 296.494 147.821 C 295.018 148.493, 293.295 150.408, 292.665 152.076 C 291.755 154.487, 291.109 154.973, 289.510 154.450 C 281.775 151.917, 276.354 153.839, 277.298 158.780 C 277.652 160.629, 277.407 160.975, 276.122 160.439 C 267.181 156.707, 261.699 158.109, 261.190 164.257 C 260.839 168.489, 259.885 168.885, 257 166 C 255.010 164.010, 251.603 163.448, 248.576 164.609 C 247.695 164.947, 246.719 166.905, 246.382 169.012 C 245.872 172.202, 245.335 172.871, 243.009 173.212 C 241.082 173.495, 239.888 173.050, 239.073 171.746 C 237.319 168.937, 233.841 169.986, 231.165 174.129 L 228.821 177.759 223.988 176.213 C 219.548 174.794, 218.946 174.805, 216.578 176.357 C 214.148 177.949, 213.100 181.330, 214.750 182.253 C 215.163 182.483, 214.943 182.537, 214.262 182.372 C 213.581 182.207, 210.832 181.781, 208.152 181.426 C 201.693 180.569, 199 182.014, 199 186.335 C 199 190.435, 200.533 192, 204.551 192 C 207.055 192, 208.656 193.036, 212.351 197.047 C 214.908 199.823, 217 202.932, 217 203.957 C 217 207.346, 230.341 222.574, 235.771 225.381 C 237.352 226.199, 239.253 227.599, 239.994 228.493 C 241.003 229.708, 242.284 229.959, 245.080 229.486 C 249.100 228.807, 250.251 229.488, 257.900 237.068 C 260.364 239.510, 261.395 241.352, 261.169 242.907 C 260.987 244.156, 261.493 245.925, 262.294 246.839 C 266.095 251.173, 275.050 259.975, 280.071 264.312 C 288.847 271.894, 291.083 273.154, 294.785 272.603 C 297.581 272.187, 298.734 272.729, 302.535 276.246 C 305.221 278.732, 307 281.256, 307 282.582 C 307 283.794, 307.675 285.045, 308.500 285.362 C 309.325 285.678, 310 286.624, 310 287.463 C 310 289.419, 329.014 309, 330.913 309 C 331.699 309, 333.139 309.720, 334.112 310.601 C 335.085 311.482, 337.693 312.295, 339.908 312.408 C 343.253 312.578, 344.661 313.377, 348.218 317.119 C 350.573 319.597, 353.230 321.898, 354.121 322.231 C 355.013 322.565, 356.031 323.988, 356.384 325.393 C 356.737 326.798, 358.155 329.614, 359.537 331.649 C 362.823 336.492, 373.561 348, 374.794 348 C 375.322 348, 376.359 348.728, 377.097 349.617 C 378.396 351.182, 385.644 354.766, 391.226 356.603 C 395.168 357.900, 406.875 368.164, 406.942 370.382 C 407.101 375.570, 419.657 389.787, 427.437 393.588 C 430.153 394.915, 432.740 396, 433.187 396 C 434.572 396, 434.084 393.753, 432.250 391.683 C 430.873 390.129, 430.820 389.808, 432 390.178 C 432.825 390.436, 434.087 391.852, 434.805 393.324 C 436.231 396.250, 439.698 396.949, 440.638 394.500 C 440.955 393.675, 442.212 393, 443.433 393 C 444.653 393, 446.630 391.958, 447.826 390.686 C 450.855 387.461, 450.912 378.928, 447.924 376.143 C 446.543 374.857, 445.956 373.264, 446.174 371.390 C 446.439 369.095, 447.121 368.445, 449.843 367.893 C 454.510 366.946, 455.216 365.914, 455.367 359.812 C 455.471 355.643, 455.002 353.826, 453.250 351.595 C 450.902 348.605, 450.363 344.556, 451.974 342.008 C 452.725 340.820, 453.170 340.770, 454.158 341.758 C 456.280 343.880, 458.701 343.135, 460.019 339.955 C 460.904 337.818, 461.082 334.279, 460.614 328.087 C 459.963 319.458, 460.003 319.228, 462.435 317.635 C 463.922 316.660, 465.372 314.333, 466.042 311.844 C 466.995 308.306, 466.851 306.758, 465.081 301.521 C 462.325 293.361, 462.363 291.009, 465.250 290.968 C 472.608 290.864, 475.137 280.161, 469.923 271.193 C 467.163 266.446, 467.485 265.499, 472.218 264.442 C 476.937 263.388, 477.728 261.910, 477.900 253.827 C 477.976 250.256, 477.433 248.480, 475.597 246.297 C 472.200 242.261, 473.003 238.496, 477.327 238.186 C 479.072 238.060, 481.014 237.272, 481.643 236.434 C 483.717 233.670, 484.101 226.754, 482.517 220.701 C 480.536 213.127, 480.600 212, 483.015 212 C 485.629 212, 488.991 206.501, 488.996 202.218 C 488.998 200.413, 488.325 197.320, 487.500 195.346 C 485.085 189.566, 485.498 186.359, 488.750 185.652 C 493.855 184.542, 494.504 183.533, 494.449 176.785 C 494.420 173.101, 493.748 169.259, 492.826 167.500 C 489.456 161.072, 489.562 160.326, 493.943 159.625 C 498.915 158.830, 500 156.938, 500 149.066 C 500 144.333, 499.560 142.560, 498 141 C 496.762 139.762, 496 137.667, 496 135.500 C 496 132.191, 496.184 132, 499.378 132 C 501.235 132, 503.258 131.395, 503.872 130.655 C 505.747 128.395, 506.281 123.363, 505.182 118.307 C 502.802 107.359, 502.812 107, 505.499 107 C 510.162 107, 512.680 97.562, 509.500 92 C 506.897 87.446, 507.598 84.532, 512 81.619 C 517.421 78.031, 517.286 76, 511.625 76 C 509.219 76, 505.953 75.741, 504.368 75.424 C 502.783 75.107, 501.152 75.182, 500.743 75.590 M 1039.500 76.682 C 1038.400 76.979, 1037.150 77.830, 1036.723 78.571 C 1036.295 79.313, 1034.270 80.228, 1032.223 80.605 C 1030.175 80.981, 1027.427 82.125, 1026.115 83.145 C 1024.803 84.165, 1022.921 85, 1021.933 85 C 1020.944 85, 1019.849 85.900, 1019.500 87 C 1019.151 88.100, 1018.512 89, 1018.081 89 C 1016.938 89, 1011 94.848, 1011 95.974 C 1011 96.499, 1010.152 97.384, 1009.115 97.938 C 1008.078 98.493, 1006.917 100.197, 1006.534 101.724 C 1006.151 103.251, 1004.974 105.305, 1003.919 106.289 C 1002.673 107.450, 1002 109.420, 1002 111.904 C 1002 114.216, 1001.209 116.737, 1000 118.273 C 998.259 120.486, 998 122.330, 998 132.500 C 998 142.670, 998.259 144.514, 1000 146.727 C 1001.184 148.232, 1002 150.784, 1002 152.980 C 1002 155.362, 1002.684 157.309, 1003.910 158.419 C 1004.961 159.369, 1006.117 161.331, 1006.481 162.779 C 1006.844 164.226, 1008.009 166.019, 1009.071 166.762 C 1010.132 167.505, 1011 168.763, 1011 169.557 C 1011 170.351, 1011.337 171.002, 1011.750 171.004 C 1012.163 171.007, 1014.731 173.032, 1017.458 175.504 C 1020.185 177.977, 1022.814 180, 1023.300 180 C 1023.787 180, 1025.329 180.900, 1026.727 182 C 1028.126 183.100, 1030.489 184, 1031.980 184 C 1033.470 184, 1035.505 184.900, 1036.500 186 C 1038.142 187.814, 1039.575 187.999, 1051.905 187.993 C 1063.790 187.988, 1065.877 187.737, 1068.500 186 C 1070.150 184.907, 1073.157 184.010, 1075.183 184.007 C 1077.984 184.002, 1079.017 183.521, 1079.500 182 C 1079.849 180.900, 1080.584 180, 1081.134 180 C 1081.684 180, 1083.608 178.875, 1085.411 177.500 C 1087.214 176.125, 1089.434 175, 1090.344 175 C 1091.255 175, 1092 174.314, 1092 173.475 C 1092 172.637, 1093.125 171.523, 1094.500 171 C 1096.259 170.331, 1097 169.298, 1097 167.515 C 1097 166.121, 1097.900 164.210, 1099 163.268 C 1100.100 162.326, 1101 160.816, 1101 159.913 C 1101 159.009, 1101.843 157.197, 1102.874 155.885 C 1103.998 154.455, 1105.040 150.898, 1105.478 147 C 1105.880 143.425, 1107.062 139.097, 1108.104 137.382 C 1110.490 133.458, 1110.488 131.533, 1108.092 127.618 C 1107.021 125.867, 1105.865 121.458, 1105.456 117.561 C 1104.972 112.960, 1104.099 109.949, 1102.863 108.623 C 1101.838 107.523, 1101 105.877, 1101 104.966 C 1101 104.055, 1100.100 102.495, 1099 101.500 C 1097.893 100.498, 1097 98.420, 1097 96.845 C 1097 95.156, 1096.464 94, 1095.680 94 C 1094.955 94, 1093.382 92.875, 1092.187 91.500 C 1090.991 90.125, 1089.560 89, 1089.007 89 C 1088.453 89, 1088 88.100, 1088 87 C 1088 85.382, 1087.333 85, 1084.508 85 C 1082.100 85, 1080.630 84.380, 1079.768 83 C 1079.016 81.796, 1077.436 81, 1075.798 81 C 1074.265 81, 1072.164 80.019, 1070.983 78.750 C 1069.026 76.648, 1067.988 76.488, 1055.194 76.320 C 1047.662 76.221, 1040.600 76.384, 1039.500 76.682 M 1600 106 L 1600 135 1622.865 135 C 1644.216 135, 1645.899 134.868, 1648.273 133 C 1649.671 131.900, 1651.757 131, 1652.908 131 C 1654.058 131, 1655.008 130.662, 1655.017 130.250 C 1655.026 129.838, 1657.051 127.349, 1659.517 124.721 C 1662.320 121.733, 1664 119.019, 1664 117.479 C 1664 116.100, 1664.880 114.468, 1666 113.768 C 1668.711 112.075, 1668.788 104.274, 1666.128 100.885 C 1665.098 99.573, 1663.933 96.582, 1663.538 94.237 C 1663.092 91.589, 1662.096 89.587, 1660.910 88.952 C 1659.859 88.390, 1659 87.270, 1659 86.465 C 1659 85.659, 1658.161 85, 1657.135 85 C 1656.109 85, 1654.197 84.163, 1652.885 83.141 C 1651.573 82.118, 1648.423 80.974, 1645.885 80.600 C 1643.347 80.225, 1640.422 79.276, 1639.385 78.491 C 1637.912 77.375, 1633.406 77.057, 1618.750 77.032 L 1600 77 1600 106 M 1427 93.286 C 1427 94.608, 1426.100 96.505, 1425 97.500 C 1423.900 98.495, 1423 100.565, 1423 102.098 C 1423 103.665, 1422.194 105.459, 1421.161 106.193 C 1420.016 107.007, 1419.070 109.365, 1418.654 112.443 C 1418.276 115.233, 1417.117 118.311, 1415.993 119.508 C 1414.897 120.674, 1414 122.812, 1414 124.258 C 1414 125.704, 1413.171 127.475, 1412.157 128.193 C 1411.083 128.955, 1410.082 131.258, 1409.757 133.715 C 1409.451 136.034, 1408.255 139.132, 1407.100 140.600 C 1405.945 142.068, 1405 144.334, 1405 145.635 L 1405 148 1428 148 L 1451 148 1451 145.535 C 1451 144.145, 1450.179 142.631, 1449.118 142.063 C 1447.904 141.414, 1446.994 139.447, 1446.556 136.528 C 1446.183 134.038, 1445.527 132, 1445.099 132 C 1443.864 132, 1442 127.182, 1442 123.988 C 1442 122.094, 1441.298 120.695, 1440 120 C 1438.667 119.286, 1438 117.906, 1438 115.859 C 1438 114.043, 1436.979 111.575, 1435.500 109.818 C 1433.771 107.763, 1433 105.647, 1433 102.958 C 1433 100.094, 1432.474 98.789, 1431 98 C 1429.851 97.385, 1429 95.906, 1429 94.524 C 1429 93.201, 1428.550 91.840, 1428 91.500 C 1427.439 91.153, 1427 91.938, 1427 93.286 M 1136.750 250.650 C 1135.237 250.916, 1133.534 252.003, 1132.964 253.066 C 1132.109 254.665, 1130.834 255, 1125.600 255 C 1120.784 255, 1118.662 255.478, 1116.727 257 C 1115.329 258.100, 1113.774 259, 1113.273 259 C 1112.771 259, 1111.402 260.012, 1110.229 261.250 C 1107.547 264.082, 1106.082 265.547, 1103.250 268.229 C 1102.013 269.402, 1101 270.771, 1101 271.273 C 1101 271.774, 1100.100 273.329, 1099 274.727 C 1097.229 276.978, 1097 278.784, 1097 290.480 C 1097 302.420, 1097.192 303.864, 1099 305.500 C 1100.100 306.495, 1101 307.855, 1101 308.520 C 1101 310.840, 1105.144 315, 1107.456 315 C 1108.924 315, 1109.957 315.728, 1110.288 316.995 C 1110.575 318.092, 1111.640 319.294, 1112.655 319.665 C 1113.670 320.037, 1115.573 321.164, 1116.885 322.170 C 1118.333 323.281, 1120.937 324, 1123.513 324 C 1126.625 324, 1128.122 324.531, 1129.128 325.993 C 1130.211 327.566, 1132.079 328.117, 1138 328.611 C 1142.910 329.021, 1145.920 329.764, 1146.715 330.762 C 1147.412 331.637, 1150.183 332.494, 1153.215 332.772 C 1156.579 333.081, 1159.150 333.937, 1160.289 335.128 C 1161.273 336.158, 1162.879 337, 1163.859 337 C 1164.838 337, 1166.618 338.125, 1167.813 339.500 C 1169.009 340.875, 1170.440 342, 1170.993 342 C 1171.547 342, 1172 344.004, 1172 346.452 C 1172 350.453, 1171.500 351.405, 1167.074 355.831 C 1162.339 360.566, 1161.894 360.774, 1155.630 361.173 C 1151.171 361.457, 1148.476 362.165, 1147.094 363.415 C 1145.076 365.241, 1144.693 365.190, 1140 362.476 C 1138.459 361.584, 1134.736 361.024, 1130.295 361.015 C 1123.955 361.002, 1122.791 360.700, 1120.591 358.500 C 1119.216 357.125, 1116.961 356, 1115.581 356 C 1114.094 356, 1112.634 355.185, 1112 354 C 1111.411 352.900, 1110.418 352, 1109.794 352 C 1109.169 352, 1107.843 351.263, 1106.847 350.362 C 1105.315 348.975, 1104.789 348.931, 1103.412 350.073 C 1102.518 350.815, 1100.822 351.900, 1099.643 352.484 C 1098.205 353.196, 1097.392 354.676, 1097.171 356.984 C 1096.983 358.952, 1096.020 360.998, 1094.921 361.768 C 1092.434 363.510, 1092.470 366.188, 1095 367.768 C 1096.100 368.455, 1097.016 369.576, 1097.037 370.258 C 1097.085 371.912, 1105.215 377, 1107.808 377 C 1108.935 377, 1110.530 377.673, 1111.353 378.496 C 1113.614 380.757, 1117.625 382, 1122.657 382 C 1125.670 382, 1128.035 382.669, 1129.727 384 C 1131.939 385.740, 1133.780 386, 1143.885 385.996 C 1153.371 385.993, 1156.050 385.657, 1158.500 384.164 C 1160.150 383.159, 1163.975 382.048, 1167 381.697 C 1170.932 381.240, 1172.891 380.480, 1173.872 379.029 C 1174.627 377.913, 1176.055 377, 1177.045 377 C 1178.036 377, 1180.184 375.875, 1181.818 374.500 C 1183.452 373.125, 1185.174 371.997, 1185.644 371.994 C 1186.411 371.988, 1187.846 369.998, 1191.735 363.549 C 1192.415 362.422, 1192.977 360.221, 1192.985 358.658 C 1192.993 357.094, 1193.900 354.671, 1195 353.273 C 1197.648 349.906, 1197.722 342.769, 1195.133 340.289 C 1194.025 339.227, 1193.053 336.520, 1192.742 333.629 C 1192.388 330.336, 1191.454 327.994, 1189.859 326.400 C 1188.562 325.103, 1185.925 322.459, 1184 320.526 C 1182.075 318.592, 1179.505 317.008, 1178.289 317.005 C 1177.073 317.002, 1175.191 316.048, 1174.107 314.885 C 1172.835 313.519, 1170.430 312.582, 1167.318 312.240 C 1164.668 311.948, 1161.427 310.875, 1160.115 309.855 C 1158.319 308.458, 1156.027 308, 1150.834 308 C 1145.776 308, 1143.791 307.619, 1143.388 306.570 C 1142.751 304.910, 1137.828 303, 1134.185 303 C 1132.800 303, 1130.955 302.327, 1130.084 301.505 C 1129.213 300.683, 1127.037 298.843, 1125.250 297.416 C 1122.125 294.922, 1122 294.545, 1122 287.630 C 1122 280.750, 1122.119 280.385, 1124.750 279.209 C 1126.263 278.532, 1128.625 277.315, 1130 276.504 C 1131.375 275.693, 1134.622 275.023, 1137.215 275.015 C 1140.897 275.003, 1142.164 274.562, 1143 273 C 1144.377 270.426, 1149.103 270.333, 1150.674 272.849 C 1151.570 274.285, 1153.524 274.827, 1159.408 275.272 C 1164.944 275.690, 1167.699 276.405, 1169.628 277.922 C 1171.081 279.065, 1173.054 280, 1174.012 280 C 1174.971 280, 1176.315 280.675, 1177 281.500 C 1178.948 283.847, 1180.987 283.293, 1184.632 279.429 C 1187.781 276.089, 1188 275.413, 1188 269 C 1188 261.311, 1186.649 259, 1182.151 259 C 1180.662 259, 1178.674 258.100, 1177.732 257 C 1176.327 255.359, 1174.782 255, 1169.132 255 C 1163.264 255, 1162.039 254.692, 1160.862 252.919 C 1159.644 251.085, 1158.293 250.798, 1149.490 250.503 C 1143.996 250.319, 1138.262 250.385, 1136.750 250.650 M 1704.376 251.086 C 1702.657 251.584, 1700.690 252.669, 1700.003 253.496 C 1699.147 254.527, 1696.879 255, 1692.784 255 C 1687.654 255, 1686.739 255.282, 1686.290 257 C 1685.904 258.475, 1684.926 259, 1682.564 259 C 1680.393 259, 1678.660 259.806, 1677.187 261.500 C 1675.991 262.875, 1674.530 264, 1673.940 264 C 1670.636 264, 1660.115 274.177, 1659.322 278.139 C 1659.014 279.680, 1657.915 281.209, 1656.881 281.538 C 1655.846 281.866, 1655 282.820, 1655 283.657 C 1655 284.494, 1654.055 285.944, 1652.901 286.879 C 1651.470 288.038, 1650.632 290.159, 1650.268 293.539 C 1649.948 296.510, 1648.985 299.218, 1647.867 300.289 C 1646.193 301.893, 1646 303.775, 1646 318.530 C 1646 333.900, 1646.132 335.065, 1648 336.232 C 1649.482 337.158, 1650 338.564, 1650 341.664 C 1650 344.568, 1650.712 346.710, 1652.330 348.673 C 1653.611 350.228, 1654.947 352.288, 1655.298 353.250 C 1655.650 354.212, 1656.626 355, 1657.469 355 C 1658.421 355, 1659 355.913, 1659 357.416 C 1659 361.097, 1671.300 373, 1675.104 373 C 1675.882 373, 1677.081 373.900, 1677.768 375 C 1678.630 376.380, 1680.100 377, 1682.508 377 C 1684.971 377, 1686 377.450, 1686 378.525 C 1686 380.487, 1690.020 382, 1695.236 382 C 1697.745 382, 1700.094 382.681, 1701.273 383.750 C 1702.807 385.140, 1705.462 385.570, 1714.191 385.841 C 1723.999 386.145, 1725.410 385.971, 1727.339 384.214 C 1728.879 382.812, 1731.461 382.099, 1736.324 381.733 C 1741.543 381.339, 1743.610 380.722, 1745.113 379.109 C 1746.194 377.949, 1748.008 377, 1749.145 377 C 1750.281 377, 1752.626 375.847, 1754.356 374.437 C 1762.549 367.758, 1763.958 366.413, 1763.978 365.250 C 1763.990 364.563, 1764.563 363.990, 1765.250 363.978 C 1765.938 363.967, 1767.850 362.338, 1769.500 360.360 C 1771.150 358.382, 1773.513 355.626, 1774.750 354.236 C 1775.987 352.846, 1777 350.790, 1777 349.668 C 1777 348.547, 1777.999 346.565, 1779.220 345.266 C 1780.990 343.382, 1781.515 341.443, 1781.809 335.701 C 1782.071 330.593, 1782.648 328.134, 1783.793 327.241 C 1784.892 326.384, 1785.540 323.885, 1785.825 319.402 C 1786.172 313.966, 1785.897 312.352, 1784.247 310.120 C 1782.820 308.190, 1782.134 305.373, 1781.845 300.258 C 1781.525 294.592, 1780.977 292.604, 1779.220 290.734 C 1777.999 289.435, 1777 287.453, 1777 286.332 C 1777 285.210, 1775.875 283.078, 1774.500 281.595 C 1773.125 280.111, 1772 278.470, 1772 277.948 C 1772 277.427, 1771.283 277, 1770.406 277 C 1769.530 277, 1768.581 276.115, 1768.298 275.033 C 1768.016 273.951, 1766.981 272.811, 1766 272.500 C 1765.019 272.189, 1763.984 271.049, 1763.702 269.967 C 1763.419 268.885, 1762.500 268, 1761.661 268 C 1760.822 268, 1759.849 267.100, 1759.500 266 C 1759.151 264.900, 1758.286 264, 1757.579 264 C 1756.871 264, 1755.078 262.875, 1753.595 261.500 C 1752.111 260.125, 1749.895 259, 1748.671 259 C 1747.446 259, 1745.674 258.100, 1744.732 257 C 1743.338 255.372, 1741.782 255, 1736.374 255 C 1730.571 255, 1729.436 254.683, 1727.412 252.500 C 1725.264 250.182, 1724.455 250.007, 1716.298 250.090 C 1711.459 250.140, 1706.094 250.588, 1704.376 251.086 M 1836.715 250.654 C 1835.183 250.921, 1833.387 252.008, 1832.724 253.070 C 1831.747 254.635, 1830.362 255, 1825.394 255 C 1820.941 255, 1818.619 255.508, 1816.885 256.862 C 1815.573 257.887, 1813.487 259.042, 1812.250 259.430 C 1811.013 259.818, 1810 260.707, 1810 261.407 C 1810 262.107, 1808.875 263.192, 1807.500 263.818 C 1806.125 264.445, 1805 265.642, 1805 266.479 C 1805 267.315, 1804.314 268, 1803.475 268 C 1802.637 268, 1801.480 269.237, 1800.906 270.748 C 1800.331 272.260, 1799.105 274.331, 1798.180 275.352 C 1796.791 276.887, 1796.500 279.423, 1796.500 290.021 C 1796.500 301.933, 1796.658 303.004, 1798.750 305.232 C 1799.987 306.550, 1801 308.309, 1801 309.140 C 1801 311.332, 1805.265 315, 1807.814 315 C 1809.308 315, 1810 315.612, 1810 316.933 C 1810 318.061, 1810.936 319.158, 1812.250 319.570 C 1813.487 319.958, 1815.573 321.113, 1816.885 322.138 C 1818.197 323.162, 1820.868 324, 1822.820 324 C 1824.979 324, 1827.195 324.774, 1828.471 325.973 C 1829.983 327.393, 1832.665 328.140, 1838.036 328.636 C 1842.691 329.066, 1845.899 329.867, 1846.561 330.764 C 1847.144 331.556, 1849.844 332.448, 1852.561 332.747 C 1855.277 333.046, 1858.573 334.125, 1859.885 335.145 C 1861.197 336.165, 1863.028 337, 1863.955 337 C 1864.881 337, 1866.618 338.125, 1867.813 339.500 C 1869.009 340.875, 1870.440 342, 1870.993 342 C 1871.547 342, 1872 344.250, 1872 347 C 1872 349.750, 1871.595 352, 1871.100 352 C 1869.994 352, 1863 358.896, 1863 359.987 C 1863 360.420, 1859.883 360.950, 1856.073 361.166 C 1851.159 361.443, 1848.556 362.092, 1847.111 363.400 C 1845.991 364.413, 1844.495 364.945, 1843.787 364.582 C 1843.079 364.219, 1841.375 363.271, 1840 362.476 C 1838.417 361.560, 1834.671 361.024, 1829.785 361.015 C 1823.159 361.002, 1821.923 360.724, 1821.023 359.043 C 1820.438 357.950, 1818.430 356.796, 1816.474 356.429 C 1814.548 356.068, 1812.641 355.261, 1812.236 354.636 C 1811.418 353.374, 1805.413 349, 1804.498 349 C 1804.178 349, 1803.217 349.563, 1802.363 350.250 C 1797.614 354.072, 1796 356.161, 1796 358.486 C 1796 359.903, 1795.360 361.308, 1794.577 361.609 C 1793.795 361.909, 1792.911 362.789, 1792.613 363.565 C 1791.547 366.345, 1802.904 377, 1806.935 377 C 1808.115 377, 1810.412 377.984, 1812.038 379.186 C 1814.111 380.719, 1816.863 381.495, 1821.247 381.784 C 1825.498 382.063, 1827.913 382.724, 1828.791 383.848 C 1829.834 385.183, 1832.382 385.564, 1842.073 385.834 C 1852.377 386.122, 1854.586 385.898, 1857.782 384.243 C 1859.827 383.184, 1863.975 382.034, 1867 381.688 C 1870.939 381.237, 1872.889 380.482, 1873.872 379.029 C 1874.627 377.913, 1876.027 377, 1876.984 377 C 1877.942 377, 1880.389 375.677, 1882.423 374.061 C 1888.415 369.299, 1891.832 364.301, 1892.601 359.176 C 1892.986 356.604, 1893.960 354.019, 1894.765 353.430 C 1896.941 351.839, 1897.010 341.494, 1894.857 339.796 C 1893.953 339.083, 1892.906 336.250, 1892.530 333.500 C 1891.927 329.091, 1891.148 327.820, 1885.941 322.750 C 1882.693 319.587, 1879.215 317, 1878.212 317 C 1877.209 317, 1874.864 315.875, 1873 314.500 C 1870.689 312.795, 1868.313 312, 1865.528 312 C 1862.682 312, 1860.926 311.394, 1859.732 310 C 1858.336 308.370, 1856.782 308, 1851.324 308 C 1845.974 308, 1844.195 307.593, 1842.469 305.971 C 1841.158 304.739, 1838.285 303.703, 1835.155 303.332 C 1832.320 302.996, 1830 302.340, 1830 301.873 C 1830 301.407, 1828.240 299.914, 1826.089 298.556 C 1821.587 295.714, 1820.472 292.473, 1821.479 285.154 C 1822.014 281.265, 1822.628 280.166, 1824.817 279.183 C 1826.293 278.521, 1828.625 277.315, 1830 276.504 C 1831.375 275.693, 1834.417 275.023, 1836.760 275.015 C 1839.769 275.004, 1841.522 274.413, 1842.732 273 C 1844.880 270.491, 1849.151 270.410, 1850.674 272.849 C 1851.570 274.285, 1853.524 274.827, 1859.408 275.272 C 1864.944 275.690, 1867.699 276.405, 1869.628 277.922 C 1871.081 279.065, 1873.054 280, 1874.012 280 C 1874.971 280, 1876.315 280.675, 1877 281.500 C 1878.902 283.792, 1880.606 283.328, 1884.467 279.467 C 1887.829 276.104, 1888 275.600, 1888 269.023 C 1888 263.016, 1887.710 261.910, 1885.777 260.557 C 1884.555 259.701, 1882.600 259, 1881.432 259 C 1880.265 259, 1878.495 258.100, 1877.500 257 C 1876.029 255.374, 1874.420 255, 1868.902 255 C 1863.150 255, 1861.890 254.681, 1860.650 252.911 C 1859.365 251.077, 1857.985 250.782, 1849.343 250.495 C 1843.930 250.315, 1838.247 250.387, 1836.715 250.654 M 1195.035 256.934 C 1193.603 259.610, 1193.763 268.973, 1195.293 272 L 1196.556 274.500 1217.028 275 L 1237.500 275.500 1237.759 327.408 C 1237.940 363.715, 1238.353 379.720, 1239.132 380.658 C 1240.467 382.267, 1256.444 382.542, 1260.435 381.025 L 1263 380.050 1263 328.132 C 1263 281.712, 1263.168 276.150, 1264.582 275.607 C 1265.452 275.273, 1274.200 275, 1284.023 275 C 1293.845 275, 1302.122 274.611, 1302.416 274.135 C 1303.468 272.434, 1304.242 262.106, 1303.582 258.586 L 1302.909 255 1249.490 255 C 1197.699 255, 1196.039 255.059, 1195.035 256.934 M 1314.667 255.667 C 1314.300 256.033, 1314 276.055, 1314 300.158 C 1314 342.900, 1314.049 344.014, 1316 345.232 C 1317.584 346.221, 1318 347.564, 1318 351.684 C 1318 355.544, 1318.465 357.224, 1319.800 358.193 C 1320.790 358.912, 1322.215 361.011, 1322.966 362.858 C 1324.708 367.139, 1333.513 375.852, 1336.906 376.651 C 1338.333 376.987, 1340.463 378.136, 1341.640 379.203 C 1342.820 380.272, 1346.186 381.495, 1349.140 381.928 C 1352.088 382.360, 1355.850 383.451, 1357.500 384.351 C 1359.695 385.548, 1363.120 385.989, 1370.260 385.994 C 1378.787 385.999, 1380.236 385.747, 1381.732 384 C 1383.019 382.497, 1384.694 381.996, 1388.472 381.985 C 1391.238 381.977, 1394.625 381.314, 1396 380.512 C 1397.375 379.710, 1399.963 378.360, 1401.750 377.513 C 1403.537 376.666, 1405 375.304, 1405 374.487 C 1405 373.669, 1405.517 373, 1406.149 373 C 1407.533 373, 1414 366.507, 1414 365.117 C 1414 364.577, 1414.853 363.864, 1415.895 363.533 C 1417.099 363.151, 1418.042 361.590, 1418.481 359.250 C 1418.861 357.225, 1420.033 354.965, 1421.086 354.227 C 1422.752 353.060, 1423 351.605, 1423 342.978 C 1423 334.094, 1423.207 332.960, 1425 332 C 1426.944 330.959, 1427 329.906, 1427 294.087 C 1427 263.797, 1426.752 257.039, 1425.605 256.088 C 1424.687 255.326, 1420.502 255.028, 1413.355 255.215 L 1402.500 255.500 1402.239 296.914 C 1401.986 336.961, 1401.912 338.373, 1399.989 339.720 C 1398.743 340.593, 1398 342.253, 1398 344.162 C 1398 345.956, 1396.970 348.435, 1395.500 350.182 C 1394.125 351.816, 1393 353.758, 1393 354.497 C 1393 355.236, 1391.697 356.127, 1390.104 356.477 C 1388.511 356.827, 1386.416 357.988, 1385.449 359.057 C 1383.876 360.794, 1382.292 361, 1370.480 361 C 1358.784 361, 1356.978 360.771, 1354.727 359 C 1353.329 357.900, 1351.725 357, 1351.163 357 C 1349.208 357, 1343 350.249, 1343 348.122 C 1343 346.944, 1342.100 345.210, 1341 344.268 C 1339.059 342.606, 1339 341.318, 1339 300.360 C 1339 277.152, 1338.727 257.452, 1338.393 256.582 C 1337.889 255.269, 1335.874 255, 1326.560 255 C 1320.385 255, 1315.033 255.300, 1314.667 255.667 M 1455.607 256.582 C 1455.273 257.452, 1455 285.522, 1455 318.959 C 1455 369.984, 1455.226 379.943, 1456.406 380.922 C 1457.439 381.779, 1468.100 382.011, 1496.496 381.795 L 1535.179 381.500 1537 379.250 C 1538.175 377.797, 1539.913 377, 1541.902 377 C 1543.900 377, 1545.422 376.297, 1546.232 375 C 1546.919 373.900, 1548.436 373, 1549.603 373 C 1552.824 373, 1567.714 359.949, 1569.283 355.750 C 1569.643 354.788, 1570.366 354, 1570.891 354 C 1571.416 354, 1572.401 352.313, 1573.080 350.250 C 1573.760 348.188, 1575.168 345.345, 1576.210 343.934 C 1577.967 341.554, 1578.082 339.617, 1577.802 317.102 C 1577.532 295.375, 1577.317 292.702, 1575.753 291.560 C 1574.793 290.859, 1573.737 288.936, 1573.407 287.287 C 1573.078 285.638, 1571.051 282.367, 1568.904 280.018 C 1566.757 277.669, 1565 275.344, 1565 274.852 C 1565 274.360, 1563.875 273.445, 1562.500 272.818 C 1561.125 272.192, 1560 271.065, 1560 270.315 C 1560 269.564, 1558.936 268.546, 1557.636 268.052 C 1556.336 267.558, 1555.025 266.508, 1554.722 265.719 C 1554.420 264.930, 1552.711 263.992, 1550.925 263.635 C 1549.139 263.278, 1547.050 262.089, 1546.282 260.993 C 1545.353 259.665, 1543.749 259, 1541.478 259 C 1539.094 259, 1537.749 258.399, 1537 257 C 1535.957 255.051, 1534.906 255, 1496.072 255 C 1460.649 255, 1456.146 255.176, 1455.607 256.582 M 1601.619 256.551 C 1601.278 257.438, 1601 285.320, 1601 318.510 C 1601 372.038, 1601.178 379.035, 1602.571 380.429 C 1604.398 382.255, 1619.099 382.673, 1623.442 381.022 L 1626.015 380.044 1625.758 317.772 L 1625.500 255.500 1613.869 255.219 C 1603.924 254.979, 1602.148 255.172, 1601.619 256.551 M 1481.239 275.763 C 1480.251 276.444, 1480.034 285.710, 1480.239 318.566 L 1480.500 360.500 1503.205 360.769 C 1524.789 361.024, 1525.961 360.942, 1526.947 359.100 C 1527.517 358.034, 1529.450 356.847, 1531.242 356.462 C 1533.034 356.077, 1535.175 355.165, 1536 354.436 C 1536.825 353.707, 1539.672 351.196, 1542.327 348.857 C 1544.982 346.518, 1547.806 343.343, 1548.602 341.802 C 1549.399 340.261, 1550.715 339, 1551.526 339 C 1552.629 339, 1553 337.738, 1553 333.990 C 1553 330.218, 1553.494 328.557, 1555 327.268 C 1556.640 325.864, 1557 324.318, 1557 318.685 C 1557 313.330, 1556.559 311.255, 1555 309.273 C 1553.755 307.690, 1553 305.216, 1553 302.720 C 1553 300.087, 1552.316 297.988, 1551.008 296.605 C 1549.912 295.447, 1546.926 292.137, 1544.371 289.250 C 1541.816 286.363, 1539.129 284, 1538.398 284 C 1537.668 284, 1536.589 283.100, 1536 282 C 1535.400 280.879, 1533.906 280, 1532.600 280 C 1531.318 280, 1529.006 279.006, 1527.461 277.791 C 1524.802 275.699, 1523.531 275.563, 1503.576 275.238 C 1491.984 275.049, 1481.932 275.285, 1481.239 275.763 M 1700.676 275.687 C 1699.124 275.940, 1696.986 277.014, 1695.926 278.074 C 1694.867 279.133, 1693.116 280, 1692.034 280 C 1688.869 280, 1675.942 293.580, 1675.292 297.589 C 1674.953 299.675, 1674.038 301.171, 1672.874 301.540 C 1671.146 302.089, 1671 303.371, 1671 318.032 C 1671 332.531, 1671.164 334.018, 1672.868 334.929 C 1673.895 335.479, 1674.997 337.237, 1675.317 338.835 C 1676.136 342.932, 1688.660 355.547, 1692.813 356.459 C 1694.575 356.846, 1696.479 358.026, 1697.044 359.081 C 1697.990 360.849, 1699.318 361, 1713.964 361 C 1726.949 361, 1730.139 360.718, 1731.399 359.458 C 1732.247 358.610, 1734.416 357.413, 1736.220 356.798 C 1738.024 356.183, 1740.573 354.852, 1741.885 353.840 C 1743.197 352.828, 1745.109 352, 1746.135 352 C 1747.365 352, 1748 351.283, 1748 349.894 C 1748 348.024, 1749.968 344.910, 1754.326 339.887 C 1755.096 339, 1756.050 336.525, 1756.447 334.387 C 1756.843 332.249, 1758.030 329.097, 1759.084 327.382 C 1761.741 323.059, 1761.766 312.246, 1759.128 308.885 C 1758.098 307.573, 1756.915 304.477, 1756.498 302.003 C 1756.062 299.416, 1754.947 296.950, 1753.870 296.197 C 1752.842 295.476, 1752 294.307, 1752 293.598 C 1752 292.890, 1751.125 291.518, 1750.056 290.551 C 1748.987 289.583, 1747.974 287.830, 1747.806 286.656 C 1747.634 285.453, 1746.627 284.362, 1745.500 284.157 C 1744.400 283.957, 1742.796 283.171, 1741.935 282.409 C 1741.074 281.648, 1738.824 280.506, 1736.935 279.871 C 1735.046 279.236, 1732.667 277.993, 1731.648 277.108 C 1730.169 275.823, 1727.154 275.473, 1716.648 275.363 C 1709.417 275.288, 1702.229 275.434, 1700.676 275.687" stroke="none" fill="#fbfbfb" fill-rule="evenodd"/></svg>