<?xml version="1.0" standalone="no"?>
<!DOCTYPE svg PUBLIC "-//W3C//DTD SVG 20010904//EN"
 "http://www.w3.org/TR/2001/REC-SVG-20010904/DTD/svg10.dtd">
<svg version="1.0" xmlns="http://www.w3.org/2000/svg"
 width="1920.000000pt" height="485.000000pt" viewBox="0 0 1920.000000 485.000000"
 preserveAspectRatio="xMidYMid meet">

<g transform="translate(0.000000,485.000000) scale(0.100000,-0.100000)"
fill="#000000" stroke="none">
<path d="M5342 4830 c-35 -11 -82 -28 -106 -39 -23 -12 -51 -21 -63 -21 -11 0
-41 -11 -67 -25 -26 -14 -66 -28 -89 -32 -23 -3 -51 -12 -62 -19 -11 -7 -47
-20 -80 -29 -33 -9 -73 -25 -90 -34 -16 -10 -52 -23 -80 -30 -27 -7 -63 -21
-80 -30 -16 -10 -49 -21 -72 -25 -23 -3 -63 -17 -89 -31 -26 -14 -59 -25 -73
-25 -15 0 -37 -7 -49 -16 -13 -9 -55 -26 -95 -39 -134 -44 -216 -74 -239 -86
-13 -7 -48 -18 -78 -25 -30 -6 -77 -21 -105 -32 -27 -11 -63 -24 -80 -30 -16
-5 -52 -19 -80 -30 -27 -11 -75 -30 -105 -42 -30 -12 -79 -28 -109 -37 -30 -8
-63 -20 -75 -27 -11 -8 -41 -18 -66 -24 -25 -6 -63 -20 -85 -32 -21 -11 -48
-20 -60 -20 -11 0 -47 -13 -81 -29 -34 -16 -76 -32 -95 -36 -19 -4 -48 -15
-65 -25 -17 -10 -54 -23 -82 -29 -28 -6 -66 -20 -84 -31 -18 -11 -44 -20 -58
-20 -14 0 -44 -9 -65 -20 -22 -12 -60 -26 -85 -32 -25 -6 -65 -21 -90 -33 -25
-12 -67 -27 -93 -34 -27 -6 -65 -20 -85 -31 -20 -11 -50 -20 -67 -20 -17 0
-51 -11 -76 -24 -25 -13 -63 -28 -84 -32 -22 -4 -62 -18 -90 -30 -27 -13 -59
-24 -71 -24 -12 0 -41 -10 -65 -23 -24 -13 -66 -29 -92 -36 -27 -6 -65 -20
-85 -31 -20 -11 -47 -20 -60 -20 -12 0 -48 -13 -79 -30 -31 -17 -65 -30 -77
-30 -29 0 -136 -76 -183 -130 -21 -25 -53 -67 -71 -94 -31 -48 -32 -52 -32
-165 0 -88 4 -123 16 -146 9 -16 25 -47 35 -67 29 -58 120 -149 309 -312 96
-82 227 -198 290 -256 63 -58 138 -124 165 -145 28 -22 73 -60 101 -85 234
-210 311 -278 463 -411 96 -83 206 -182 245 -219 39 -38 105 -96 146 -131 88
-73 206 -175 236 -204 83 -81 152 -142 234 -210 131 -109 240 -205 340 -300
47 -44 156 -140 243 -214 87 -73 181 -155 208 -182 113 -110 221 -158 355
-159 89 0 186 30 232 72 83 77 156 221 177 353 7 44 20 97 29 117 9 21 20 77
25 125 5 49 17 105 26 126 8 21 20 72 25 115 6 42 19 104 30 137 11 33 24 90
30 126 5 36 19 91 30 123 11 32 24 92 29 135 6 42 17 93 26 114 8 21 20 72 25
115 6 42 19 103 30 134 11 32 23 90 26 130 4 40 15 93 24 118 10 25 23 81 30
125 6 44 21 105 31 135 11 30 23 91 28 135 5 45 18 103 29 130 11 28 23 84 27
125 4 41 16 97 26 124 11 26 22 76 25 110 3 33 17 95 30 138 12 42 26 100 30
130 4 29 17 87 29 128 13 41 26 103 29 136 3 34 14 84 25 110 10 27 23 85 29
129 6 44 18 100 27 125 9 25 20 80 25 124 5 43 19 103 30 133 11 30 25 87 30
126 6 40 20 101 32 137 17 51 22 87 21 170 0 101 -2 107 -37 171 -65 118 -161
170 -310 168 -45 -1 -109 -9 -144 -19z m-223 -747 c9 -7 -20 -185 -38 -231
-10 -26 -24 -89 -30 -141 -6 -51 -19 -107 -27 -123 -9 -16 -20 -69 -25 -118
-5 -49 -17 -110 -28 -137 -10 -26 -22 -77 -26 -113 -4 -36 -17 -101 -30 -145
-13 -44 -26 -107 -30 -140 -4 -33 -16 -82 -26 -110 -11 -27 -23 -89 -28 -136
-5 -47 -17 -104 -26 -125 -9 -21 -21 -78 -26 -127 -6 -48 -19 -112 -29 -143
-11 -31 -24 -94 -30 -139 -6 -45 -19 -109 -31 -141 -11 -33 -22 -86 -25 -119
-3 -33 -16 -96 -29 -140 -13 -44 -26 -106 -30 -137 -4 -32 -15 -81 -25 -110
-10 -29 -22 -87 -26 -128 -3 -41 -15 -95 -24 -120 -10 -25 -23 -79 -29 -121
-11 -70 -57 -229 -74 -257 -5 -6 -23 -12 -42 -12 -29 0 -58 20 -197 136 -90
76 -201 174 -248 219 -87 83 -166 152 -328 289 -51 43 -118 103 -150 133 -31
30 -133 121 -227 201 -93 80 -174 150 -180 156 -18 20 -218 200 -280 251 -108
90 -219 187 -290 255 -84 80 -125 116 -230 200 -116 93 -204 180 -226 223 -19
37 -19 37 2 66 16 21 36 33 73 42 28 6 65 20 81 29 17 10 48 22 70 26 22 3 66
20 97 35 32 16 67 29 78 29 11 0 38 9 60 20 22 11 63 25 91 31 28 6 66 19 83
29 17 10 49 22 71 26 22 4 62 18 90 30 27 13 57 24 67 24 9 0 45 13 80 30 34
16 72 30 83 30 11 0 43 11 70 24 28 12 67 26 88 30 21 4 59 18 84 32 25 13 56
24 69 24 22 0 83 21 209 72 28 11 77 28 111 38 33 10 74 25 90 33 16 8 48 18
69 22 22 4 59 18 82 31 23 13 52 24 65 24 13 1 41 8 63 16 22 9 69 26 105 38
36 13 79 30 95 38 17 9 55 21 85 27 30 7 64 18 75 25 11 7 43 18 71 24 29 6
67 20 85 31 19 10 52 22 74 26 21 4 56 15 77 26 20 10 42 19 48 19 6 0 51 16
100 35 49 19 98 35 108 35 11 0 34 11 53 24 30 21 70 25 88 9z"/>
<path d="M10385 4491 c-33 -4 -82 -15 -108 -24 -26 -10 -58 -17 -70 -17 -12
-1 -40 -9 -62 -20 -22 -11 -46 -19 -53 -20 -15 0 -165 -84 -204 -114 -153
-117 -272 -283 -335 -466 -24 -70 -45 -212 -46 -305 0 -88 23 -242 42 -285 11
-25 21 -51 21 -59 0 -12 45 -108 73 -156 55 -93 211 -255 285 -296 109 -59
143 -76 192 -96 30 -13 75 -27 100 -32 25 -5 72 -16 105 -25 80 -22 340 -22
412 -1 28 8 75 20 104 25 30 6 68 17 84 24 17 8 59 29 95 46 148 70 244 149
357 295 37 49 133 236 133 262 0 10 9 47 20 81 29 93 29 351 0 442 -11 34 -20
71 -20 81 0 19 -88 193 -123 244 -62 89 -225 245 -255 245 -5 0 -15 7 -22 15
-7 9 -37 27 -67 40 -29 14 -77 36 -107 50 -30 14 -63 25 -73 25 -10 0 -52 9
-92 20 -82 23 -285 34 -386 21z m355 -410 c158 -79 197 -109 255 -196 52 -79
73 -125 91 -200 28 -113 29 -187 3 -295 -39 -166 -107 -269 -231 -352 -39 -27
-76 -48 -83 -48 -7 0 -34 -10 -61 -22 -43 -19 -67 -22 -185 -22 -128 0 -141 2
-210 29 -101 40 -194 108 -241 175 -52 75 -70 105 -75 134 -3 17 -13 42 -22
56 -12 19 -17 57 -19 165 -4 134 -2 144 26 226 16 47 41 104 55 126 50 79 180
188 247 208 14 4 31 12 38 18 24 19 87 26 227 23 122 -2 146 -5 185 -25z"/>
<path d="M7483 4450 c-24 -10 -30 -25 -14 -34 5 -3 12 -18 15 -33 4 -16 15
-46 26 -68 11 -22 31 -67 45 -100 15 -33 35 -78 45 -100 10 -22 28 -65 40 -95
13 -30 33 -78 46 -105 13 -28 24 -57 24 -65 0 -9 6 -24 14 -35 7 -11 28 -54
45 -95 17 -41 38 -88 46 -105 7 -16 28 -64 45 -105 17 -41 37 -88 45 -105 7
-16 28 -64 45 -105 36 -86 64 -149 91 -202 11 -20 19 -42 19 -48 0 -6 11 -37
26 -68 14 -31 31 -70 38 -87 8 -16 25 -55 39 -85 14 -30 28 -64 31 -76 3 -11
18 -45 34 -75 l27 -54 200 -3 c110 -1 210 0 223 3 12 3 27 18 33 33 6 15 19
45 30 67 10 22 39 90 65 150 25 61 57 133 70 160 13 28 24 54 24 58 0 5 12 34
26 65 14 31 35 77 46 102 10 25 25 59 33 75 8 17 28 64 45 105 17 41 40 93 50
116 11 23 20 47 20 54 0 6 9 23 20 37 11 14 20 31 20 38 0 13 51 132 75 177 8
14 15 35 15 46 0 10 9 31 20 45 11 14 20 30 20 37 0 6 14 41 31 78 50 109 56
124 84 192 14 36 35 81 44 100 28 53 36 101 20 111 -16 10 -362 10 -398 0 -18
-5 -28 -17 -34 -41 -5 -19 -15 -42 -22 -50 -7 -8 -16 -26 -20 -40 -4 -14 -18
-50 -32 -80 -13 -30 -31 -68 -38 -85 -7 -16 -25 -59 -40 -95 -15 -36 -35 -83
-46 -105 -10 -22 -32 -74 -49 -115 -17 -41 -38 -88 -45 -105 -39 -85 -65 -144
-65 -150 0 -7 -17 -46 -104 -237 -14 -31 -26 -61 -26 -66 0 -13 -61 -102 -70
-102 -5 0 -12 10 -15 23 -6 21 -29 72 -80 180 -14 29 -25 58 -25 66 0 7 -7 25
-15 39 -8 15 -28 61 -45 102 -17 41 -37 88 -45 103 -8 16 -15 33 -15 38 0 9
-47 117 -70 161 -5 9 -26 58 -46 109 -19 51 -42 102 -50 113 -8 11 -14 27 -14
36 0 8 -11 37 -24 65 -50 107 -65 141 -71 166 -3 14 -17 38 -31 52 l-25 27
-202 -1 c-111 0 -212 -4 -224 -9z"/>
<path d="M11882 4452 c-10 -7 -12 -199 -10 -928 l3 -919 900 -3 900 -2 17 21
c10 11 23 40 29 62 6 23 17 49 24 57 7 8 17 29 21 45 3 17 15 46 25 65 10 19
23 52 29 72 6 21 23 47 37 58 25 19 40 20 419 20 216 0 399 -3 408 -6 16 -6
35 -42 81 -154 15 -36 38 -88 51 -116 13 -28 24 -58 24 -67 0 -10 9 -26 20
-37 19 -19 33 -20 235 -20 172 0 217 3 221 14 3 7 -6 35 -20 61 -15 26 -26 56
-26 65 0 10 -7 23 -15 30 -8 7 -15 18 -15 24 0 7 -9 29 -20 51 -11 21 -25 54
-31 74 -7 20 -20 49 -30 66 -11 16 -19 37 -19 46 0 9 -9 28 -20 42 -11 14 -20
30 -20 37 0 6 -12 37 -26 68 -31 66 -69 150 -94 207 -10 22 -29 65 -43 95 -14
30 -35 78 -47 105 -47 106 -101 228 -132 295 -12 25 -27 59 -34 75 -7 17 -24
57 -39 90 -15 33 -35 78 -45 100 -9 22 -32 70 -49 107 -17 37 -31 70 -31 74 0
4 -6 15 -14 23 -8 9 -18 32 -23 51 -14 55 -35 60 -238 59 -189 -1 -223 -5
-236 -29 -30 -58 -49 -103 -49 -114 0 -7 -9 -25 -20 -39 -11 -14 -20 -30 -20
-37 0 -6 -14 -41 -31 -78 -17 -37 -40 -87 -51 -112 -20 -43 -34 -76 -77 -172
-27 -64 -84 -189 -135 -300 -14 -31 -26 -62 -26 -68 0 -7 -9 -23 -20 -37 -11
-14 -20 -33 -20 -42 0 -9 -8 -30 -19 -46 -10 -17 -24 -48 -31 -70 -7 -22 -18
-47 -25 -55 -7 -8 -16 -29 -20 -47 -3 -17 -13 -37 -21 -44 -8 -6 -14 -19 -14
-28 0 -8 -12 -41 -26 -71 -15 -30 -38 -80 -51 -110 -14 -30 -33 -74 -44 -97
-43 -95 -58 -129 -68 -156 -6 -16 -17 -27 -24 -24 -8 2 -13 39 -15 122 -1 67
-7 125 -14 132 -8 10 -99 13 -448 13 -241 0 -445 3 -454 6 -14 6 -16 80 -16
738 0 442 -4 737 -10 746 -8 12 -44 15 -207 18 -109 1 -204 -1 -211 -6z m2423
-503 c5 -19 18 -45 28 -59 9 -13 17 -32 17 -41 0 -18 38 -110 70 -171 11 -20
20 -43 20 -50 0 -7 9 -30 20 -51 11 -20 20 -43 20 -50 0 -7 8 -28 19 -47 10
-19 24 -52 30 -73 22 -67 21 -67 -248 -67 -283 0 -279 -1 -251 80 10 30 26 69
34 85 9 17 16 37 16 45 0 9 6 24 14 35 15 23 76 171 76 187 0 5 9 21 20 35 11
14 20 32 20 41 0 25 62 143 74 139 6 -2 15 -19 21 -38z"/>
<path d="M15540 4452 l-25 -8 -3 -914 c-2 -724 0 -915 10 -922 15 -9 399 -11
422 -2 14 5 16 36 16 235 0 292 -17 269 196 269 125 0 161 -3 183 -16 15 -9
59 -64 98 -122 40 -59 99 -145 132 -192 34 -47 73 -103 87 -125 15 -22 32 -43
38 -47 15 -11 438 -10 454 1 11 7 9 15 -10 43 -59 89 -107 155 -122 167 -9 7
-16 19 -16 25 0 6 -17 34 -38 61 -20 28 -54 75 -74 105 -21 30 -51 74 -68 98
-31 45 -43 93 -24 99 37 12 139 91 183 140 53 59 102 138 115 183 4 14 15 41
23 60 13 27 16 70 16 195 0 142 -2 166 -22 215 -96 238 -213 341 -486 431 -69
22 -80 23 -565 25 -272 2 -506 0 -520 -4z m963 -386 c124 -51 187 -147 187
-281 0 -132 -58 -225 -178 -286 -45 -22 -58 -24 -275 -27 -197 -4 -231 -2
-252 12 l-25 16 0 288 c0 217 3 291 13 301 9 9 65 11 237 9 220 -4 227 -5 293
-32z"/>
<path d="M17490 4451 l-25 -7 -3 -917 -2 -917 22 -5 c13 -3 338 -4 723 -3
l700 3 3 159 c2 108 -1 163 -9 172 -9 12 -93 14 -481 14 -304 0 -476 4 -489
10 -18 10 -19 23 -19 195 0 172 1 185 19 195 13 6 163 10 420 10 389 0 401 1
411 20 6 12 9 77 8 167 l-3 148 -410 5 c-225 3 -418 9 -427 14 -16 7 -18 27
-18 190 l0 183 25 11 c19 9 155 12 473 12 335 0 451 3 460 12 8 8 12 59 12
165 0 140 -2 153 -19 163 -22 11 -1329 13 -1371 1z"/>
<path d="M11305 2290 c-44 -9 -102 -28 -130 -42 -49 -25 -145 -112 -145 -133
-1 -5 -9 -28 -20 -50 -14 -29 -19 -62 -20 -116 0 -170 86 -261 321 -337 36
-12 85 -24 110 -28 110 -15 260 -82 299 -131 28 -36 27 -110 -3 -154 -34 -51
-77 -74 -180 -99 l-93 -21 -86 20 c-47 12 -95 21 -106 21 -22 0 -107 40 -164
78 -35 23 -39 24 -62 9 -13 -9 -32 -37 -41 -61 -16 -42 -16 -47 -1 -71 31 -48
173 -108 306 -131 98 -17 234 -15 335 4 94 18 205 90 250 163 36 56 60 172 46
219 -6 21 -11 48 -11 60 0 25 -37 79 -84 122 -35 32 -161 98 -187 98 -10 0
-45 9 -76 19 -32 11 -78 22 -102 25 -25 4 -59 13 -75 21 -17 7 -48 18 -68 25
-106 32 -151 105 -129 204 15 70 51 95 182 131 l97 26 108 -26 c60 -14 133
-37 162 -51 61 -30 74 -27 102 18 29 47 26 92 -6 117 -15 12 -31 21 -37 21 -5
0 -28 9 -51 19 -57 27 -200 51 -288 50 -40 -1 -109 -9 -153 -19z"/>
<path d="M17000 2293 c-87 -17 -232 -86 -302 -144 -67 -57 -162 -200 -179
-269 -4 -19 -15 -60 -24 -90 -20 -69 -16 -200 9 -285 22 -72 66 -174 81 -183
5 -4 23 -27 40 -50 41 -62 133 -136 205 -168 19 -8 48 -22 63 -30 65 -36 292
-50 425 -27 56 10 129 37 172 64 8 5 29 16 45 25 41 23 155 140 185 189 66
108 93 209 93 345 0 192 -52 319 -189 454 -66 66 -87 81 -154 111 -19 9 -48
23 -65 31 -76 37 -283 51 -405 27z m275 -172 c67 -15 162 -62 203 -102 111
-108 176 -306 144 -434 -28 -111 -100 -238 -160 -282 -80 -58 -211 -103 -300
-103 -73 1 -198 29 -247 56 -72 40 -154 128 -195 209 l-35 69 0 143 c1 130 3
145 22 172 12 16 25 40 28 54 9 32 127 150 180 179 93 49 237 65 360 39z"/>
<path d="M18380 2306 c-3 -3 -38 -10 -77 -16 -130 -20 -240 -100 -291 -210
-35 -78 -36 -195 -3 -260 39 -74 55 -91 131 -139 47 -30 256 -101 295 -101 31
0 175 -49 215 -72 49 -30 70 -54 81 -91 20 -66 -12 -136 -82 -179 -13 -9 -64
-26 -114 -38 l-90 -22 -86 21 c-48 12 -96 21 -108 21 -27 0 -117 43 -175 84
-27 19 -28 19 -54 -1 -15 -11 -33 -36 -41 -56 -20 -53 -3 -86 62 -119 148 -76
221 -93 397 -93 133 0 216 14 281 48 113 59 168 125 193 234 36 160 -35 288
-200 363 -37 16 -75 30 -85 30 -10 0 -41 9 -69 20 -28 11 -62 20 -75 20 -36 0
-196 55 -237 82 -61 39 -81 106 -58 189 14 50 63 81 179 114 80 22 101 25 135
16 23 -6 75 -18 116 -27 41 -10 95 -28 119 -41 24 -13 50 -23 57 -23 19 0 54
55 61 95 7 43 -13 69 -66 86 -20 6 -47 18 -61 25 -46 24 -333 57 -350 40z"/>
<path d="M11996 2277 c-16 -11 -18 -24 -14 -70 7 -89 3 -87 218 -87 162 0 189
-2 194 -16 3 -9 6 -244 6 -523 0 -381 3 -510 12 -519 12 -12 134 -17 162 -6
14 5 16 60 16 513 0 442 2 509 16 529 15 21 21 22 190 22 102 0 183 4 195 10
16 9 19 22 19 79 0 54 -4 70 -16 75 -9 3 -233 6 -498 6 -387 0 -486 -3 -500
-13z"/>
<path d="M13183 2280 l-23 -9 0 -383 c1 -211 5 -401 10 -423 33 -149 65 -217
135 -290 120 -125 323 -170 557 -126 128 25 250 122 309 247 44 92 50 157 55
604 5 418 12 390 -89 390 -106 0 -97 37 -97 -420 l0 -400 -27 -67 c-46 -115
-99 -162 -209 -188 -82 -19 -126 -19 -209 0 -93 22 -151 65 -195 146 l-35 64
-3 423 -4 423 -24 10 c-31 11 -121 11 -151 -1z"/>
<path d="M14588 2280 c-17 -10 -18 -50 -18 -608 0 -452 3 -601 12 -610 9 -9
99 -12 344 -12 l331 0 84 28 c46 15 95 35 109 43 14 9 49 31 78 49 80 49 159
150 206 261 27 66 27 69 24 250 l-3 184 -43 85 c-56 114 -119 180 -247 258
-21 13 -28 16 -115 52 -53 23 -66 24 -400 27 -233 2 -351 0 -362 -7z m731
-194 c140 -74 200 -139 244 -269 35 -102 36 -187 2 -291 -43 -133 -128 -223
-262 -280 -61 -25 -67 -26 -287 -26 -191 0 -227 2 -240 16 -14 13 -16 66 -16
427 0 365 2 415 16 436 l17 23 236 -4 c235 -4 236 -4 290 -32z"/>
<path d="M16046 2274 c-14 -14 -16 -83 -16 -608 0 -447 3 -595 12 -604 15 -15
142 -16 169 -2 18 10 19 28 19 605 0 526 -2 595 -16 609 -11 12 -35 16 -84 16
-49 0 -73 -4 -84 -16z"/>
</g>
</svg>
