<?xml version="1.0" encoding="UTF-8"?>
<svg version="1.1" xmlns="http://www.w3.org/2000/svg" width="66" height="30">
<path d="M0 0 C0.99 0 1.98 0 3 0 C3.33 0.66 3.66 1.32 4 2 C4.33 1.34 4.66 0.68 5 0 C9.29 0 13.58 0 18 0 C18 1.65 18 3.3 18 5 C18.99 5 19.98 5 21 5 C21.33 3.35 21.66 1.7 22 0 C23.9375 0.375 23.9375 0.375 26 1 C26.33 1.66 26.66 2.32 27 3 C27.33 2.01 27.66 1.02 28 0 C31.96 0 35.92 0 40 0 C40 3.96 40 7.92 40 12 C30.76 12 21.52 12 12 12 C12 10.68 12 9.36 12 8 C9.82137181 5.99280504 9.82137181 5.99280504 7 5 C4.69712207 5.69140351 4.69712207 5.69140351 3 7 C2.01 4.69 1.02 2.38 0 0 Z M10 2 C10 2.99 10 3.98 10 5 C10.99 4.67 11.98 4.34 13 4 C12.67 3.34 12.34 2.68 12 2 C11.34 2 10.68 2 10 2 Z M14 5 C13.67 5.66 13.34 6.32 13 7 C13.66 7 14.32 7 15 7 C14.67 6.34 14.34 5.68 14 5 Z M30 5 C30.33 5.99 30.66 6.98 31 8 C31 7.01 31 6.02 31 5 C30.67 5 30.34 5 30 5 Z M22 6 C21.67 7.65 21.34 9.3 21 11 C21.66 10.67 22.32 10.34 23 10 C23 9.01 23 8.02 23 7 C23.66 6.67 24.32 6.34 25 6 C24.01 6 23.02 6 22 6 Z M26 9 C26.33 9.66 26.66 10.32 27 11 C27.33 10.34 27.66 9.68 28 9 C27.34 9 26.68 9 26 9 Z M33 9 C33.33 9.66 33.66 10.32 34 11 C34.33 10.34 34.66 9.68 35 9 C34.34 9 33.68 9 33 9 Z " fill="#000000" transform="translate(25,9)"/>
<path d="M0 0 C-0.99 5.28 -1.98 10.56 -3 16 C-3.99 16.33 -4.98 16.66 -6 17 C-8.69921875 15.26953125 -8.69921875 15.26953125 -11.6875 12.8125 C-12.68136719 12.01457031 -13.67523438 11.21664063 -14.69921875 10.39453125 C-17 8 -17 8 -17 4 C-14.73291675 3.1344953 -12.46224921 2.28240685 -10.1875 1.4375 C-9.54490234 1.19064453 -8.90230469 0.94378906 -8.24023438 0.68945312 C-3.33984375 -1.11328125 -3.33984375 -1.11328125 0 0 Z M-9.0625 4.5 C-10.16271484 4.91765625 -10.16271484 4.91765625 -11.28515625 5.34375 C-11.85105469 5.5603125 -12.41695312 5.776875 -13 6 C-9.82460444 9.42578949 -9.82460444 9.42578949 -6 12 C-5.34 9.03 -4.68 6.06 -4 3 C-5.78881237 3 -7.4083068 3.86983116 -9.0625 4.5 Z " fill="#000000" transform="translate(21,8)"/>
</svg>
